<svg xmlns="http://www.w3.org/2000/svg" xmlns:xlink="http://www.w3.org/1999/xlink" width="500" zoomAndPan="magnify" viewBox="0 0 375 374.999991" height="500" preserveAspectRatio="xMidYMid meet" version="1.0"><defs><g/></defs><path fill="#5ce1e6" d="M 190.523438 92.214844 L 198.066406 92.214844 L 198.066406 68.078125 L 195.15625 68.078125 L 195.15625 62.476562 L 155.507812 62.476562 L 155.507812 68.078125 L 152.597656 68.078125 L 152.597656 92.214844 L 160.140625 92.214844 L 143.976562 124.539062 L 172.097656 202.121094 L 172.097656 208.90625 L 174.363281 208.90625 L 174.363281 144.1875 C 169.898438 143.628906 166.445312 139.820312 166.445312 135.207031 C 166.445312 130.59375 169.898438 126.785156 174.363281 126.230469 L 174.363281 92.214844 L 176.300781 92.214844 L 176.300781 126.230469 C 180.765625 126.785156 184.222656 130.59375 184.222656 135.207031 C 184.222656 139.820312 180.765625 143.628906 176.300781 144.1875 L 176.300781 208.910156 L 178.5625 208.910156 L 178.5625 202.121094 L 206.6875 124.539062 Z M 190.523438 92.214844 " fill-opacity="1" fill-rule="nonzero"/><g fill="#5ce1e6" fill-opacity="1"><g transform="translate(47.13827, 357.303903)"><g><path d="M 85.59375 -147.421875 L 145.09375 0 L 109 0 L 98.09375 -29.484375 L 41.984375 -29.484375 L 31.09375 0 L -5 0 L 54.5 -147.421875 Z M 86.65625 -58.96875 L 70.21875 -101.859375 L 69.859375 -101.859375 L 53.421875 -58.96875 Z M 86.65625 -58.96875 "/></g></g></g><g fill="#5ce1e6" fill-opacity="1"><g transform="translate(187.229269, 357.303903)"><g><path d="M 144.921875 0 L 98.640625 0 L 44.3125 -62.546875 L 44.3125 0 L 10.71875 0 L 10.71875 -147.421875 L 44.3125 -147.421875 L 44.3125 -87.203125 L 94.890625 -147.421875 L 135.625 -147.421875 L 76.296875 -77.546875 Z M 144.921875 0 "/></g></g></g><g fill="#5ce1e6" fill-opacity="1"><g transform="translate(134.078755, 293.15377)"><g><path d="M 0.699219 -0.320312 C 0.71875 -0.109375 0.75 0.101562 0.851562 0.289062 C 1.191406 0.929688 1.871094 1.070312 2.4375 0.828125 C 3.589844 0.339844 5.75 -1.550781 6.988281 -1.699219 C 6.976562 -1.738281 6.976562 -1.757812 6.96875 -1.769531 C 6.628906 -2.148438 3.558594 -0.0390625 2.550781 0.449219 C 2.289062 0.578125 2.03125 0.691406 1.730469 0.691406 C 1.578125 0.679688 1.480469 0.621094 1.417969 0.480469 C 1.359375 0.339844 1.328125 0.191406 1.328125 0.03125 C 1.320312 -0.328125 1.390625 -0.667969 1.53125 -1.007812 C 1.640625 -1.289062 1.808594 -1.539062 1.960938 -1.800781 C 2.070312 -2.007812 2.050781 -2.078125 1.839844 -2.179688 C 1.78125 -2.210938 1.71875 -2.25 1.660156 -2.230469 C 1.550781 -2.1875 1.488281 -2.25 1.410156 -2.300781 C 1.109375 -2.46875 0.808594 -2.507812 0.511719 -2.320312 C -0.210938 -1.871094 -0.539062 -1.191406 -0.519531 -0.359375 C -0.519531 -0.078125 -0.199219 0.078125 0.0585938 -0.0390625 C 0.160156 -0.0898438 0.25 -0.160156 0.320312 -0.238281 C 0.429688 -0.339844 0.539062 -0.449219 0.660156 -0.570312 C 0.699219 -0.46875 0.691406 -0.390625 0.699219 -0.320312 Z M 0.140625 -0.441406 C 0.0703125 -0.378906 -0.0117188 -0.328125 -0.121094 -0.25 C -0.121094 -0.46875 -0.078125 -0.628906 -0.0195312 -0.769531 C 0.160156 -1.230469 0.417969 -1.621094 0.800781 -1.941406 C 0.871094 -2 0.960938 -2.039062 1.039062 -2.089844 C 1.089844 -2.121094 1.160156 -2.128906 1.199219 -2.058594 C 1.238281 -2 1.28125 -1.949219 1.230469 -1.871094 C 0.910156 -1.359375 0.601562 -0.839844 0.140625 -0.441406 Z M 0.140625 -0.441406 "/></g></g></g><g fill="#5ce1e6" fill-opacity="1"><g transform="translate(144.826078, 293.15377)"><g><path d="M 8.609375 -1.738281 C 8.585938 -1.730469 8.566406 -1.71875 8.546875 -1.699219 C 8.316406 -1.558594 8.089844 -1.417969 7.859375 -1.28125 C 7.367188 -0.980469 6.886719 -0.667969 6.359375 -0.441406 C 5.949219 -0.261719 5.527344 -0.148438 5.078125 -0.160156 C 4.789062 -0.160156 4.75 -0.21875 4.808594 -0.488281 C 4.820312 -0.53125 4.828125 -0.570312 4.839844 -0.609375 C 4.867188 -0.730469 4.910156 -0.851562 4.917969 -0.96875 C 4.929688 -1.167969 4.847656 -1.328125 4.6875 -1.449219 C 4.527344 -1.558594 4.398438 -1.480469 4.257812 -1.410156 C 4 -1.269531 3.757812 -1.089844 3.507812 -0.929688 C 3.46875 -0.910156 3.4375 -0.851562 3.359375 -0.890625 C 3.390625 -1.058594 3.507812 -1.179688 3.578125 -1.339844 C 3.777344 -1.769531 4.007812 -2.1875 4.289062 -2.589844 C 4.597656 -3.019531 4.890625 -3.449219 5.1875 -3.890625 C 5.339844 -4.117188 5.46875 -4.359375 5.539062 -4.640625 C 5.648438 -5.117188 5.207031 -5.589844 4.71875 -5.480469 C 4.289062 -5.378906 3.898438 -5.199219 3.539062 -4.949219 C 2.828125 -4.4375 2.230469 -3.800781 1.648438 -3.148438 C 1.25 -2.6875 0.910156 -2.1875 0.570312 -1.691406 C 0.519531 -1.621094 0.480469 -1.539062 0.378906 -1.488281 C 0.378906 -1.621094 0.429688 -1.71875 0.46875 -1.820312 C 0.550781 -1.988281 0.621094 -2.160156 0.710938 -2.320312 C 0.769531 -2.417969 0.710938 -2.558594 0.589844 -2.628906 C 0.488281 -2.6875 0.417969 -2.648438 0.351562 -2.558594 C 0.269531 -2.449219 0.191406 -2.339844 0.128906 -2.210938 C -0.0898438 -1.71875 -0.148438 -1.199219 -0.210938 -0.679688 C -0.230469 -0.53125 -0.160156 -0.417969 -0.0585938 -0.328125 C 0.0507812 -0.238281 0.109375 -0.25 0.191406 -0.371094 C 0.328125 -0.578125 0.460938 -0.800781 0.589844 -1.019531 C 1.289062 -2.160156 2.089844 -3.21875 3.140625 -4.058594 C 3.597656 -4.417969 4.078125 -4.75 4.628906 -4.949219 C 4.777344 -5 4.917969 -5.058594 5.109375 -5.027344 C 5.097656 -4.890625 5.046875 -4.789062 5 -4.679688 C 4.929688 -4.539062 4.839844 -4.398438 4.757812 -4.257812 C 4.4375 -3.6875 4.019531 -3.1875 3.660156 -2.648438 C 3.277344 -2.078125 2.96875 -1.480469 2.75 -0.828125 C 2.710938 -0.71875 2.667969 -0.601562 2.679688 -0.46875 C 2.6875 -0.308594 2.789062 -0.21875 2.917969 -0.148438 C 3.039062 -0.0898438 3.097656 -0.199219 3.179688 -0.261719 C 3.480469 -0.511719 3.800781 -0.75 4.148438 -0.929688 C 4.230469 -0.980469 4.320312 -1.039062 4.429688 -1.019531 C 4.417969 -0.859375 4.410156 -0.730469 4.398438 -0.589844 C 4.359375 -0.171875 4.789062 0.25 5.25 0.148438 C 5.789062 0.0390625 6.289062 -0.160156 6.757812 -0.429688 C 7.1875 -0.667969 7.609375 -0.941406 8.027344 -1.191406 C 8.246094 -1.328125 8.457031 -1.46875 8.679688 -1.597656 C 8.71875 -1.628906 8.746094 -1.660156 8.707031 -1.71875 C 8.6875 -1.75 8.648438 -1.757812 8.609375 -1.738281 Z M 8.609375 -1.738281 "/></g></g></g><g fill="#5ce1e6" fill-opacity="1"><g transform="translate(157.442668, 293.15377)"><g><path d="M 0.699219 -0.320312 C 0.71875 -0.109375 0.75 0.101562 0.851562 0.289062 C 1.191406 0.929688 1.871094 1.070312 2.4375 0.828125 C 3.589844 0.339844 5.75 -1.550781 6.988281 -1.699219 C 6.976562 -1.738281 6.976562 -1.757812 6.96875 -1.769531 C 6.628906 -2.148438 3.558594 -0.0390625 2.550781 0.449219 C 2.289062 0.578125 2.03125 0.691406 1.730469 0.691406 C 1.578125 0.679688 1.480469 0.621094 1.417969 0.480469 C 1.359375 0.339844 1.328125 0.191406 1.328125 0.03125 C 1.320312 -0.328125 1.390625 -0.667969 1.53125 -1.007812 C 1.640625 -1.289062 1.808594 -1.539062 1.960938 -1.800781 C 2.070312 -2.007812 2.050781 -2.078125 1.839844 -2.179688 C 1.78125 -2.210938 1.71875 -2.25 1.660156 -2.230469 C 1.550781 -2.1875 1.488281 -2.25 1.410156 -2.300781 C 1.109375 -2.46875 0.808594 -2.507812 0.511719 -2.320312 C -0.210938 -1.871094 -0.539062 -1.191406 -0.519531 -0.359375 C -0.519531 -0.078125 -0.199219 0.078125 0.0585938 -0.0390625 C 0.160156 -0.0898438 0.25 -0.160156 0.320312 -0.238281 C 0.429688 -0.339844 0.539062 -0.449219 0.660156 -0.570312 C 0.699219 -0.46875 0.691406 -0.390625 0.699219 -0.320312 Z M 0.140625 -0.441406 C 0.0703125 -0.378906 -0.0117188 -0.328125 -0.121094 -0.25 C -0.121094 -0.46875 -0.078125 -0.628906 -0.0195312 -0.769531 C 0.160156 -1.230469 0.417969 -1.621094 0.800781 -1.941406 C 0.871094 -2 0.960938 -2.039062 1.039062 -2.089844 C 1.089844 -2.121094 1.160156 -2.128906 1.199219 -2.058594 C 1.238281 -2 1.28125 -1.949219 1.230469 -1.871094 C 0.910156 -1.359375 0.601562 -0.839844 0.140625 -0.441406 Z M 0.140625 -0.441406 "/></g></g></g><g fill="#5ce1e6" fill-opacity="1"><g transform="translate(168.189991, 293.15377)"><g><path d="M 4.5 -1.71875 C 4.039062 -1.488281 3.609375 -1.21875 3.21875 -0.878906 C 2.699219 -0.441406 2.199219 0.0390625 1.699219 0.511719 C 1.308594 0.890625 0.917969 1.269531 0.460938 1.570312 C 0.28125 1.691406 0.078125 1.78125 -0.128906 1.828125 C -0.320312 1.859375 -0.359375 1.839844 -0.441406 1.667969 C -0.511719 1.507812 -0.519531 1.339844 -0.519531 1.167969 C -0.539062 0.691406 -0.398438 0.238281 -0.261719 -0.199219 C -0.0117188 -0.960938 0.308594 -1.679688 0.667969 -2.378906 C 0.78125 -2.597656 0.898438 -2.808594 1.007812 -3.027344 L 1.019531 -3.027344 C 3.628906 -5.949219 6.226562 -10.21875 6.289062 -10.9375 C 6.347656 -11.097656 6.136719 -11.445312 5.96875 -11.308594 C 5.886719 -11.238281 5.796875 -11.167969 5.730469 -11.085938 C 5.25 -10.558594 4.777344 -10.015625 4.328125 -9.457031 C 3.800781 -8.808594 3.320312 -8.117188 2.859375 -7.40625 C 2.398438 -6.679688 1.949219 -5.957031 1.519531 -5.207031 C 1.03125 -4.367188 0.570312 -3.519531 0.140625 -2.648438 C -0.148438 -2.089844 -0.417969 -1.519531 -0.628906 -0.917969 C -0.828125 -0.339844 -0.96875 0.238281 -0.96875 0.859375 C -0.96875 1.101562 -0.917969 1.320312 -0.828125 1.53125 C -0.667969 1.929688 -0.300781 2.109375 0.121094 2 C 0.199219 1.980469 0.28125 1.941406 0.359375 1.910156 C 0.609375 1.789062 0.820312 1.621094 1.03125 1.449219 C 1.660156 0.941406 2.230469 0.378906 2.808594 -0.179688 C 3.089844 -0.441406 3.371094 -0.71875 3.660156 -0.980469 C 4 -1.28125 4.378906 -1.519531 4.828125 -1.71875 C 4.6875 -1.808594 4.589844 -1.769531 4.5 -1.71875 Z M 1.75 -4.390625 C 2.390625 -5.519531 3.070312 -6.617188 3.789062 -7.707031 C 4.359375 -8.558594 5.007812 -9.359375 5.636719 -10.167969 C 5.757812 -10.316406 5.878906 -10.46875 6 -10.617188 C 5.769531 -10.117188 5.296875 -9.289062 4.570312 -8.136719 C 3.578125 -6.578125 2.46875 -5.058594 1.441406 -3.828125 C 1.539062 -4.019531 1.648438 -4.207031 1.75 -4.390625 Z M 1.75 -4.390625 "/></g></g></g><g fill="#5ce1e6" fill-opacity="1"><g transform="translate(104.723288, 304.403769)"><g><path d="M 8.289062 -1.667969 C 8.359375 -1.738281 8.339844 -1.800781 8.238281 -1.828125 C 8.148438 -1.871094 8.078125 -1.828125 8.007812 -1.789062 C 7.679688 -1.589844 7.378906 -1.351562 7.089844 -1.101562 C 6.6875 -0.761719 6.269531 -0.441406 5.789062 -0.199219 C 4.9375 0.230469 4.050781 0.570312 3.109375 0.75 C 2.507812 0.871094 1.898438 0.929688 1.289062 0.859375 C 0.890625 0.808594 0.53125 0.699219 0.191406 0.488281 C 0.121094 0.449219 0.0390625 0.417969 -0.0117188 0.328125 C 0.0898438 0.289062 0.179688 0.25 0.269531 0.21875 C 0.46875 0.148438 0.660156 0.0703125 0.851562 -0.0195312 C 1.390625 -0.300781 1.910156 -0.628906 2.410156 -0.96875 C 3.140625 -1.46875 3.820312 -2.039062 4.46875 -2.628906 C 5.039062 -3.140625 5.539062 -3.730469 6.136719 -4.199219 C 6.207031 -4.257812 6.1875 -4.320312 6.128906 -4.347656 C 5.988281 -4.429688 5.847656 -4.4375 5.707031 -4.347656 C 5.609375 -4.277344 5.519531 -4.199219 5.429688 -4.109375 C 4.796875 -3.527344 4.207031 -2.910156 3.570312 -2.347656 C 2.621094 -1.519531 1.597656 -0.78125 0.460938 -0.21875 C 0.230469 -0.109375 -0.0117188 0.0117188 -0.28125 0.0703125 C -0.28125 -0.03125 -0.238281 -0.0898438 -0.199219 -0.160156 C 0.210938 -1.050781 0.628906 -1.929688 1.03125 -2.828125 C 1.539062 -3.96875 2.039062 -5.128906 2.621094 -6.25 C 3.121094 -7.226562 3.679688 -8.167969 4.347656 -9.039062 C 4.667969 -9.457031 4.980469 -9.898438 5.519531 -10.078125 C 5.46875 -10.167969 5.398438 -10.1875 5.308594 -10.207031 C 5.167969 -10.226562 5.046875 -10.175781 4.929688 -10.117188 C 4.550781 -9.90625 4.257812 -9.597656 3.988281 -9.277344 C 3.097656 -8.207031 2.417969 -7.019531 1.820312 -5.777344 C 1.398438 -4.9375 1.019531 -4.078125 0.640625 -3.21875 C 0.28125 -2.410156 -0.101562 -1.621094 -0.46875 -0.820312 C -0.550781 -0.640625 -0.640625 -0.46875 -0.71875 -0.289062 C -0.808594 -0.121094 -0.808594 -0.121094 -0.980469 -0.191406 C -1.121094 -0.238281 -1.257812 -0.28125 -1.410156 -0.300781 C -1.578125 -0.328125 -1.757812 -0.320312 -1.910156 -0.230469 C -2.160156 -0.078125 -2.160156 0.210938 -1.917969 0.359375 C -1.789062 0.441406 -1.648438 0.480469 -1.507812 0.5 C -1.398438 0.511719 -1.289062 0.53125 -1.191406 0.539062 C -1.167969 0.601562 -1.191406 0.640625 -1.210938 0.667969 C -1.597656 1.417969 -2 2.160156 -2.46875 2.859375 C -2.757812 3.300781 -3.078125 3.738281 -3.46875 4.109375 C -3.628906 4.269531 -3.820312 4.410156 -4.039062 4.480469 C -4.089844 4.5 -4.1875 4.457031 -4.1875 4.550781 C -4.1875 4.628906 -4.097656 4.660156 -4.039062 4.679688 C -4.007812 4.6875 -3.980469 4.6875 -3.949219 4.6875 C -3.71875 4.6875 -3.480469 4.648438 -3.269531 4.527344 C -2.96875 4.347656 -2.738281 4.078125 -2.519531 3.808594 C -1.929688 3.050781 -1.417969 2.230469 -0.980469 1.359375 C -0.839844 1.089844 -0.691406 0.820312 -0.539062 0.550781 C -0.46875 0.410156 -0.410156 0.398438 -0.261719 0.488281 C -0.25 0.5 -0.230469 0.511719 -0.210938 0.519531 C 0.179688 0.761719 0.578125 0.96875 1.03125 1.039062 C 1.871094 1.179688 2.699219 1.140625 3.519531 0.949219 C 4.117188 0.808594 4.699219 0.589844 5.257812 0.328125 C 5.648438 0.148438 6.046875 -0.0195312 6.429688 -0.238281 C 7.007812 -0.570312 7.507812 -1.007812 8.027344 -1.429688 C 8.117188 -1.5 8.207031 -1.578125 8.289062 -1.667969 Z M -0.941406 0.121094 C -0.960938 0.199219 -1 0.261719 -1.089844 0.28125 C -1.210938 0.300781 -1.339844 0.300781 -1.460938 0.289062 C -1.519531 0.289062 -1.578125 0.289062 -1.640625 0.28125 C -1.757812 0.25 -1.800781 0.179688 -1.75 0.0585938 C -1.699219 -0.0703125 -1.519531 -0.148438 -1.351562 -0.109375 C -1.238281 -0.078125 -1.128906 -0.0507812 -1.039062 0.0117188 C -1 0.0390625 -0.929688 0.0507812 -0.941406 0.121094 Z M -0.941406 0.121094 "/></g></g></g><g fill="#5ce1e6" fill-opacity="1"><g transform="translate(116.720122, 304.403769)"><g><path d="M -0.730469 3.167969 C -0.488281 3.1875 0 2.980469 0.199219 2.769531 C 0.230469 2.738281 0.300781 2.699219 0.25 2.648438 C 0.199219 2.589844 0.140625 2.621094 0.101562 2.660156 C -0.0585938 2.800781 -0.238281 2.890625 -0.429688 2.96875 C -0.898438 3.179688 -1.167969 3 -1.160156 2.480469 C -1.160156 2.128906 -1.039062 1.800781 -0.890625 1.480469 C -0.589844 0.839844 -0.191406 0.269531 0.191406 -0.308594 C 0.320312 -0.519531 0.441406 -0.730469 0.511719 -0.96875 C 0.550781 -1.101562 0.601562 -1.269531 0.5 -1.359375 C 0.289062 -1.570312 0.398438 -1.710938 0.570312 -1.859375 C 0.609375 -1.890625 0.628906 -1.949219 0.648438 -2.007812 C 0.667969 -2.070312 0.667969 -2.128906 0.621094 -2.167969 C 0.519531 -2.289062 0.390625 -2.347656 0.230469 -2.320312 C 0.0390625 -2.28125 -0.101562 -2.167969 -0.148438 -1.96875 C -0.191406 -1.808594 -0.140625 -1.640625 -0.0117188 -1.550781 C 0.101562 -1.480469 0.109375 -1.398438 0.0898438 -1.300781 C 0.0703125 -1.109375 0 -0.941406 -0.101562 -0.78125 C -0.261719 -0.519531 -0.417969 -0.261719 -0.578125 -0.0117188 C -0.871094 0.441406 -1.140625 0.890625 -1.328125 1.378906 C -1.480469 1.800781 -1.539062 2.21875 -1.398438 2.660156 C -1.308594 2.9375 -1.019531 3.160156 -0.730469 3.167969 Z M -0.730469 3.167969 "/></g></g></g><g fill="#5ce1e6" fill-opacity="1"><g transform="translate(123.369064, 304.403769)"><g><path d="M 0.800781 -2.410156 C 0.667969 -2.519531 0.558594 -2.519531 0.429688 -2.398438 C 0.378906 -2.347656 0.328125 -2.300781 0.28125 -2.25 C -0.328125 -1.429688 -0.808594 -0.558594 -0.910156 0.480469 C -0.949219 0.75 -0.941406 1.019531 -0.878906 1.289062 C -0.828125 1.5 -0.738281 1.710938 -0.601562 1.890625 C -0.320312 2.21875 -0.0117188 2.257812 0.351562 2.03125 C 0.410156 1.988281 0.46875 1.929688 0.53125 1.878906 C 1.039062 1.449219 1.488281 0.960938 1.949219 0.480469 C 2.507812 -0.109375 3.121094 -0.609375 3.859375 -0.96875 C 4.277344 -1.167969 4.679688 -1.390625 5.117188 -1.550781 C 5.160156 -1.558594 5.199219 -1.570312 5.1875 -1.621094 C 5.1875 -1.660156 5.148438 -1.679688 5.109375 -1.679688 C 5.027344 -1.691406 4.96875 -1.660156 4.910156 -1.628906 C 4.679688 -1.53125 4.449219 -1.429688 4.230469 -1.320312 C 3.789062 -1.109375 3.328125 -0.917969 2.910156 -0.648438 C 2.300781 -0.28125 1.78125 0.210938 1.289062 0.730469 C 1.007812 1.007812 0.761719 1.320312 0.429688 1.539062 C 0.238281 1.667969 0.0585938 1.800781 -0.179688 1.808594 C -0.359375 1.820312 -0.410156 1.78125 -0.449219 1.609375 C -0.5 1.398438 -0.5 1.191406 -0.480469 0.980469 C -0.398438 0.199219 -0.101562 -0.511719 0.300781 -1.179688 C 0.480469 -1.480469 0.667969 -1.75 0.851562 -2.039062 C 0.941406 -2.1875 0.917969 -2.308594 0.800781 -2.410156 Z M 1.257812 -2.898438 C 1.351562 -2.871094 1.410156 -2.929688 1.398438 -3.019531 C 1.398438 -3.167969 1.230469 -3.320312 1.058594 -3.339844 C 0.96875 -3.347656 0.917969 -3.289062 0.949219 -3.199219 C 1 -3.050781 1.121094 -2.949219 1.257812 -2.898438 Z M 1.257812 -2.898438 "/></g></g></g><g fill="#5ce1e6" fill-opacity="1"><g transform="translate(132.417065, 304.403769)"><g><path d="M 1.179688 1.007812 C 1.148438 1.078125 1.089844 1.160156 1.160156 1.230469 C 1.230469 1.308594 1.320312 1.289062 1.417969 1.269531 C 1.488281 1.257812 1.539062 1.210938 1.578125 1.160156 C 1.738281 0.960938 1.898438 0.769531 1.980469 0.53125 C 2.007812 0.441406 2.070312 0.371094 2.128906 0.300781 C 2.621094 -0.171875 3.109375 -0.640625 3.667969 -1.039062 C 3.710938 -1.070312 3.777344 -1.089844 3.75 -1.160156 C 3.71875 -1.21875 3.640625 -1.21875 3.578125 -1.199219 C 3.519531 -1.167969 3.460938 -1.140625 3.398438 -1.101562 C 3.179688 -0.960938 2.96875 -0.800781 2.769531 -0.628906 C 2.558594 -0.449219 2.347656 -0.269531 2.121094 -0.0703125 C 1.898438 -0.5 1.667969 -0.621094 1.210938 -0.570312 C 1.140625 -0.570312 1.070312 -0.550781 1 -0.539062 C 0.878906 -0.5 0.769531 -0.46875 0.648438 -0.429688 C 0.480469 -0.378906 0.308594 -0.320312 0.140625 -0.269531 C 0 -0.238281 -0.03125 -0.28125 -0.0390625 -0.410156 C -0.0390625 -0.539062 -0.0117188 -0.660156 0.03125 -0.769531 C 0.171875 -1.140625 0.339844 -1.488281 0.570312 -1.800781 C 0.78125 -2.078125 1 -2.339844 1.328125 -2.5 C 1.550781 -2.597656 1.648438 -2.570312 1.769531 -2.359375 C 1.839844 -2.21875 1.847656 -2.070312 1.828125 -1.910156 C 1.808594 -1.738281 1.910156 -1.648438 2.058594 -1.679688 C 2.160156 -1.699219 2.199219 -1.78125 2.210938 -1.859375 C 2.28125 -2.339844 2.167969 -2.6875 1.621094 -2.820312 C 1.300781 -2.890625 0.988281 -2.820312 0.710938 -2.660156 C 0.441406 -2.5 0.21875 -2.28125 0.03125 -2.03125 C -0.25 -1.640625 -0.460938 -1.21875 -0.601562 -0.769531 C -0.710938 -0.390625 -0.550781 -0.128906 -0.171875 -0.0390625 C -0.148438 -0.0390625 -0.121094 -0.0390625 -0.101562 -0.03125 C 0.148438 0.0195312 0.390625 -0.03125 0.628906 -0.109375 C 0.859375 -0.191406 1.101562 -0.25 1.351562 -0.308594 C 1.441406 -0.328125 1.507812 -0.300781 1.558594 -0.210938 C 1.699219 0.0195312 1.667969 0.378906 1.46875 0.570312 C 1.328125 0.699219 1.238281 0.839844 1.179688 1.007812 Z M 1.179688 1.007812 "/></g></g></g><g fill="#5ce1e6" fill-opacity="1"><g transform="translate(140.285524, 304.403769)"><g><path d="M 6.089844 -1.558594 C 5.527344 -1.269531 5.007812 -0.929688 4.539062 -0.511719 C 3.917969 0.0390625 3.378906 0.667969 2.820312 1.28125 C 2.53125 1.597656 2.21875 1.910156 1.839844 2.121094 C 1.628906 2.25 1.519531 2.1875 1.488281 1.960938 C 1.480469 1.890625 1.480469 1.820312 1.488281 1.75 C 1.507812 1.609375 1.539062 1.46875 1.578125 1.339844 C 1.757812 0.75 2.019531 0.191406 2.308594 -0.359375 C 2.578125 -0.890625 2.859375 -1.417969 3.128906 -1.949219 C 3.25 -2.179688 3.339844 -2.4375 3.390625 -2.6875 C 3.460938 -3 3.320312 -3.160156 3 -3.160156 C 2.820312 -3.148438 2.667969 -3.070312 2.519531 -2.980469 C 2.050781 -2.667969 1.640625 -2.269531 1.230469 -1.890625 C 0.917969 -1.597656 0.621094 -1.289062 0.261719 -1.039062 C 0.269531 -1.339844 0.339844 -1.628906 0.441406 -1.898438 C 0.808594 -2.917969 1.230469 -3.917969 1.710938 -4.890625 C 2 -5.519531 2.328125 -6.117188 2.660156 -6.71875 C 3.308594 -7.898438 4.007812 -9.058594 4.75 -10.175781 C 4.929688 -10.449219 5.089844 -10.738281 5.238281 -11.027344 C 5.308594 -11.167969 5.277344 -11.21875 5.128906 -11.265625 C 4.949219 -11.328125 4.820312 -11.289062 4.699219 -11.117188 C 4.457031 -10.765625 4.21875 -10.425781 3.988281 -10.085938 C 3.160156 -8.828125 2.390625 -7.539062 1.699219 -6.207031 C 1.121094 -5.070312 0.570312 -3.917969 0.101562 -2.730469 C -0.109375 -2.210938 -0.28125 -1.679688 -0.300781 -1.121094 C -0.320312 -0.789062 -0.148438 -0.640625 0.171875 -0.667969 C 0.289062 -0.679688 0.390625 -0.730469 0.488281 -0.800781 C 0.589844 -0.890625 0.691406 -0.96875 0.78125 -1.058594 C 1.25 -1.5 1.699219 -1.960938 2.1875 -2.371094 C 2.398438 -2.539062 2.609375 -2.71875 2.859375 -2.820312 C 2.910156 -2.75 2.878906 -2.6875 2.847656 -2.628906 C 2.800781 -2.5 2.738281 -2.359375 2.679688 -2.230469 C 2.460938 -1.730469 2.160156 -1.28125 1.917969 -0.800781 C 1.621094 -0.230469 1.328125 0.328125 1.167969 0.949219 C 1.089844 1.28125 1.007812 1.609375 1.101562 1.960938 C 1.167969 2.238281 1.320312 2.359375 1.609375 2.359375 C 1.839844 2.371094 2.039062 2.28125 2.210938 2.140625 C 2.417969 1.988281 2.609375 1.820312 2.789062 1.640625 C 3.25 1.167969 3.710938 0.710938 4.167969 0.230469 C 4.820312 -0.429688 5.507812 -1.03125 6.320312 -1.480469 C 6.367188 -1.507812 6.4375 -1.53125 6.417969 -1.609375 C 6.257812 -1.640625 6.257812 -1.640625 6.089844 -1.558594 Z M 6.089844 -1.558594 "/></g></g></g><g fill="#5ce1e6" fill-opacity="1"><g transform="translate(150.423094, 304.403769)"><g><path d="M 6.449219 -1.890625 C 6.410156 -1.890625 6.367188 -1.871094 6.339844 -1.859375 C 5.949219 -1.667969 5.558594 -1.46875 5.1875 -1.25 C 4.667969 -0.929688 4.148438 -0.609375 3.589844 -0.339844 C 3.308594 -0.210938 3.019531 -0.0585938 2.710938 -0.0117188 C 2.378906 0.0390625 2.308594 -0.03125 2.339844 -0.351562 C 2.339844 -0.371094 2.339844 -0.398438 2.339844 -0.417969 C 2.378906 -0.667969 2.460938 -0.898438 2.570312 -1.121094 C 2.71875 -1.441406 2.878906 -1.75 3.039062 -2.058594 C 3.121094 -2.21875 3.179688 -2.378906 3.230469 -2.550781 C 3.289062 -2.78125 3.199219 -2.960938 3.027344 -3.109375 C 2.859375 -3.25 2.699219 -3.1875 2.539062 -3.097656 C 2.359375 -3 2.210938 -2.871094 2.058594 -2.730469 C 1.519531 -2.25 1.007812 -1.738281 0.511719 -1.230469 C 0.417969 -1.128906 0.328125 -1.039062 0.171875 -1 C 0.179688 -1.140625 0.230469 -1.25 0.28125 -1.359375 C 0.410156 -1.648438 0.578125 -1.917969 0.761719 -2.179688 C 0.929688 -2.398438 0.878906 -2.597656 0.660156 -2.738281 C 0.558594 -2.800781 0.480469 -2.800781 0.398438 -2.71875 C -0.0195312 -2.308594 -0.28125 -1.828125 -0.261719 -1.21875 C -0.25 -1.03125 -0.179688 -0.871094 -0.0585938 -0.730469 C 0.078125 -0.570312 0.210938 -0.550781 0.378906 -0.679688 C 0.449219 -0.730469 0.519531 -0.78125 0.578125 -0.839844 C 1.070312 -1.328125 1.53125 -1.859375 2.058594 -2.308594 C 2.28125 -2.5 2.488281 -2.679688 2.820312 -2.789062 C 2.6875 -2.46875 2.519531 -2.21875 2.371094 -1.96875 C 2.089844 -1.488281 1.96875 -0.980469 2.019531 -0.441406 C 2.058594 0.0195312 2.410156 0.429688 3 0.21875 C 3.328125 0.101562 3.648438 -0.0390625 3.949219 -0.210938 C 4.527344 -0.519531 5.070312 -0.871094 5.628906 -1.199219 C 5.917969 -1.359375 6.199219 -1.519531 6.476562 -1.679688 C 6.519531 -1.710938 6.589844 -1.71875 6.566406 -1.800781 C 6.546875 -1.847656 6.507812 -1.890625 6.449219 -1.890625 Z M 6.449219 -1.890625 "/></g></g></g><g fill="#5ce1e6" fill-opacity="1"><g transform="translate(160.720593, 304.403769)"><g><path d="M 0.699219 -0.320312 C 0.71875 -0.109375 0.75 0.101562 0.851562 0.289062 C 1.191406 0.929688 1.871094 1.070312 2.4375 0.828125 C 3.589844 0.339844 5.75 -1.550781 6.988281 -1.699219 C 6.976562 -1.738281 6.976562 -1.757812 6.96875 -1.769531 C 6.628906 -2.148438 3.558594 -0.0390625 2.550781 0.449219 C 2.289062 0.578125 2.03125 0.691406 1.730469 0.691406 C 1.578125 0.679688 1.480469 0.621094 1.417969 0.480469 C 1.359375 0.339844 1.328125 0.191406 1.328125 0.03125 C 1.320312 -0.328125 1.390625 -0.667969 1.53125 -1.007812 C 1.640625 -1.289062 1.808594 -1.539062 1.960938 -1.800781 C 2.070312 -2.007812 2.050781 -2.078125 1.839844 -2.179688 C 1.78125 -2.210938 1.71875 -2.25 1.660156 -2.230469 C 1.550781 -2.1875 1.488281 -2.25 1.410156 -2.300781 C 1.109375 -2.46875 0.808594 -2.507812 0.511719 -2.320312 C -0.210938 -1.871094 -0.539062 -1.191406 -0.519531 -0.359375 C -0.519531 -0.078125 -0.199219 0.078125 0.0585938 -0.0390625 C 0.160156 -0.0898438 0.25 -0.160156 0.320312 -0.238281 C 0.429688 -0.339844 0.539062 -0.449219 0.660156 -0.570312 C 0.699219 -0.46875 0.691406 -0.390625 0.699219 -0.320312 Z M 0.140625 -0.441406 C 0.0703125 -0.378906 -0.0117188 -0.328125 -0.121094 -0.25 C -0.121094 -0.46875 -0.078125 -0.628906 -0.0195312 -0.769531 C 0.160156 -1.230469 0.417969 -1.621094 0.800781 -1.941406 C 0.871094 -2 0.960938 -2.039062 1.039062 -2.089844 C 1.089844 -2.121094 1.160156 -2.128906 1.199219 -2.058594 C 1.238281 -2 1.28125 -1.949219 1.230469 -1.871094 C 0.910156 -1.359375 0.601562 -0.839844 0.140625 -0.441406 Z M 0.140625 -0.441406 "/></g></g></g><g fill="#5ce1e6" fill-opacity="1"><g transform="translate(171.467917, 304.403769)"><g/></g></g><g fill="#5ce1e6" fill-opacity="1"><g transform="translate(179.466335, 304.403769)"><g><path d="M 8.609375 -1.738281 C 8.585938 -1.730469 8.566406 -1.71875 8.546875 -1.699219 C 8.316406 -1.558594 8.089844 -1.417969 7.859375 -1.28125 C 7.367188 -0.980469 6.886719 -0.667969 6.359375 -0.441406 C 5.949219 -0.261719 5.527344 -0.148438 5.078125 -0.160156 C 4.789062 -0.160156 4.75 -0.21875 4.808594 -0.488281 C 4.820312 -0.53125 4.828125 -0.570312 4.839844 -0.609375 C 4.867188 -0.730469 4.910156 -0.851562 4.917969 -0.96875 C 4.929688 -1.167969 4.847656 -1.328125 4.6875 -1.449219 C 4.527344 -1.558594 4.398438 -1.480469 4.257812 -1.410156 C 4 -1.269531 3.757812 -1.089844 3.507812 -0.929688 C 3.46875 -0.910156 3.4375 -0.851562 3.359375 -0.890625 C 3.390625 -1.058594 3.507812 -1.179688 3.578125 -1.339844 C 3.777344 -1.769531 4.007812 -2.1875 4.289062 -2.589844 C 4.597656 -3.019531 4.890625 -3.449219 5.1875 -3.890625 C 5.339844 -4.117188 5.46875 -4.359375 5.539062 -4.640625 C 5.648438 -5.117188 5.207031 -5.589844 4.71875 -5.480469 C 4.289062 -5.378906 3.898438 -5.199219 3.539062 -4.949219 C 2.828125 -4.4375 2.230469 -3.800781 1.648438 -3.148438 C 1.25 -2.6875 0.910156 -2.1875 0.570312 -1.691406 C 0.519531 -1.621094 0.480469 -1.539062 0.378906 -1.488281 C 0.378906 -1.621094 0.429688 -1.71875 0.46875 -1.820312 C 0.550781 -1.988281 0.621094 -2.160156 0.710938 -2.320312 C 0.769531 -2.417969 0.710938 -2.558594 0.589844 -2.628906 C 0.488281 -2.6875 0.417969 -2.648438 0.351562 -2.558594 C 0.269531 -2.449219 0.191406 -2.339844 0.128906 -2.210938 C -0.0898438 -1.71875 -0.148438 -1.199219 -0.210938 -0.679688 C -0.230469 -0.53125 -0.160156 -0.417969 -0.0585938 -0.328125 C 0.0507812 -0.238281 0.109375 -0.25 0.191406 -0.371094 C 0.328125 -0.578125 0.460938 -0.800781 0.589844 -1.019531 C 1.289062 -2.160156 2.089844 -3.21875 3.140625 -4.058594 C 3.597656 -4.417969 4.078125 -4.75 4.628906 -4.949219 C 4.777344 -5 4.917969 -5.058594 5.109375 -5.027344 C 5.097656 -4.890625 5.046875 -4.789062 5 -4.679688 C 4.929688 -4.539062 4.839844 -4.398438 4.757812 -4.257812 C 4.4375 -3.6875 4.019531 -3.1875 3.660156 -2.648438 C 3.277344 -2.078125 2.96875 -1.480469 2.75 -0.828125 C 2.710938 -0.71875 2.667969 -0.601562 2.679688 -0.46875 C 2.6875 -0.308594 2.789062 -0.21875 2.917969 -0.148438 C 3.039062 -0.0898438 3.097656 -0.199219 3.179688 -0.261719 C 3.480469 -0.511719 3.800781 -0.75 4.148438 -0.929688 C 4.230469 -0.980469 4.320312 -1.039062 4.429688 -1.019531 C 4.417969 -0.859375 4.410156 -0.730469 4.398438 -0.589844 C 4.359375 -0.171875 4.789062 0.25 5.25 0.148438 C 5.789062 0.0390625 6.289062 -0.160156 6.757812 -0.429688 C 7.1875 -0.667969 7.609375 -0.941406 8.027344 -1.191406 C 8.246094 -1.328125 8.457031 -1.46875 8.679688 -1.597656 C 8.71875 -1.628906 8.746094 -1.660156 8.707031 -1.71875 C 8.6875 -1.75 8.648438 -1.757812 8.609375 -1.738281 Z M 8.609375 -1.738281 "/></g></g></g><g fill="#5ce1e6" fill-opacity="1"><g transform="translate(192.082925, 304.403769)"><g><path d="M 0.449219 1.320312 C 0.5 1.371094 0.558594 1.429688 0.640625 1.378906 C 0.730469 1.339844 0.78125 1.269531 0.789062 1.179688 C 0.800781 1.089844 0.738281 0.988281 0.640625 0.890625 C 0.539062 0.789062 0.429688 0.800781 0.351562 0.929688 C 0.269531 1.050781 0.308594 1.199219 0.449219 1.320312 Z M 0.449219 1.320312 "/></g></g></g><g fill="#5ce1e6" fill-opacity="1"><g transform="translate(198.022151, 304.403769)"><g><path d="M 3.4375 -3.148438 C 3.269531 -3.25 3.148438 -3.257812 2.988281 -3.140625 C 2.519531 -2.769531 2.097656 -2.347656 1.710938 -1.898438 C 1.449219 -1.589844 1.25 -1.238281 0.988281 -0.929688 C 0.800781 -0.710938 0.628906 -0.488281 0.410156 -0.300781 C 0.28125 -0.199219 0.25 -0.21875 0.21875 -0.378906 C 0.210938 -0.5 0.210938 -0.609375 0.230469 -0.730469 C 0.300781 -1.140625 0.429688 -1.519531 0.621094 -1.890625 C 0.738281 -2.121094 0.878906 -2.328125 1 -2.550781 C 1.101562 -2.71875 1.058594 -2.789062 0.871094 -2.820312 C 0.710938 -2.839844 0.570312 -2.800781 0.449219 -2.667969 C 0.0117188 -2.1875 -0.210938 -1.621094 -0.300781 -0.980469 C -0.328125 -0.820312 -0.320312 -0.660156 -0.289062 -0.5 C -0.230469 -0.199219 -0.03125 -0.03125 0.28125 -0.0195312 C 0.441406 -0.0117188 0.578125 -0.0585938 0.710938 -0.171875 C 0.871094 -0.308594 1.007812 -0.480469 1.167969 -0.660156 C 1.179688 -0.609375 1.191406 -0.601562 1.179688 -0.578125 C 1.160156 -0.519531 1.140625 -0.46875 1.121094 -0.410156 C 0.890625 0.171875 0.730469 0.769531 0.699219 1.390625 C 0.667969 1.839844 0.730469 2.269531 0.941406 2.667969 C 1.039062 2.847656 1.160156 3 1.351562 3.070312 C 1.390625 3.089844 1.441406 3.128906 1.46875 3.078125 C 1.507812 3.027344 1.46875 2.988281 1.429688 2.960938 C 1.289062 2.859375 1.25 2.699219 1.199219 2.539062 C 1.058594 2.070312 1.070312 1.597656 1.160156 1.121094 C 1.328125 0.269531 1.660156 -0.511719 2.089844 -1.25 C 2.460938 -1.890625 2.890625 -2.480469 3.4375 -2.980469 C 3.519531 -3.050781 3.527344 -3.089844 3.4375 -3.148438 Z M 3.4375 -3.148438 "/></g></g></g></svg>