<svg xmlns="http://www.w3.org/2000/svg" xmlns:xlink="http://www.w3.org/1999/xlink" width="500" zoomAndPan="magnify" viewBox="0 0 375 374.999991" height="500" preserveAspectRatio="xMidYMid meet" version="1.0"><defs><g/></defs><g fill="#ffffff" fill-opacity="1"><g transform="translate(147.822344, 137.890508)"><g><path d="M 23.40625 -12.429688 C 22.902344 -12.65625 22.230469 -12.429688 22.007812 -11.925781 C 17.75 -3.246094 14.558594 -0.503906 13.046875 -0.785156 C 12.429688 -0.894531 10.414062 -2.070312 9.910156 -11.871094 C 9.910156 -12.320312 9.574219 -12.710938 9.183594 -12.824219 C 8.734375 -12.933594 8.230469 -12.824219 8.007812 -12.429688 C 7.671875 -12.039062 7.335938 -11.589844 7 -11.085938 C 5.597656 -9.183594 3.75 -6.605469 1.511719 -4.199219 C 1.175781 -3.808594 0.894531 -3.582031 0.726562 -3.472656 C 0.335938 -5.429688 2.40625 -12.933594 5.710938 -15.285156 C 6.664062 -15.957031 7.953125 -16.460938 9.6875 -14.445312 C 10.078125 -14 10.75 -13.941406 11.199219 -14.335938 C 11.648438 -14.671875 11.703125 -15.398438 11.367188 -15.847656 C 9.238281 -18.308594 7.222656 -18.253906 5.878906 -17.804688 C 1.566406 -16.292969 -1.34375 -8.007812 -1.457031 -4.199219 C -1.511719 -2.632812 -1.0625 -1.625 -0.167969 -1.289062 C 1.230469 -0.726562 2.632812 -2.238281 3.078125 -2.742188 C 4.984375 -4.816406 6.71875 -7.054688 7.953125 -8.792969 C 8.566406 -2.40625 10.078125 0.785156 12.597656 1.34375 C 12.824219 1.34375 13.046875 1.398438 13.269531 1.398438 C 17.078125 1.398438 21.167969 -5.261719 23.910156 -10.976562 C 24.191406 -11.535156 23.964844 -12.152344 23.40625 -12.429688 Z M 23.40625 -12.429688 "/></g></g></g><g fill="#ffffff" fill-opacity="1"><g transform="translate(168.651437, 137.890508)"><g><path d="M 31.582031 -12.488281 C 31.132812 -12.878906 30.40625 -12.824219 30.011719 -12.375 C 25.535156 -7.113281 22.511719 -5.765625 21.167969 -6.269531 C 19.988281 -6.71875 19.316406 -8.960938 19.375 -12.488281 C 19.375 -13.101562 19.429688 -14.613281 18.199219 -14.894531 C 16.796875 -15.230469 15.789062 -13.605469 12.824219 -7.390625 C 12.320312 -6.328125 11.871094 -5.375 11.589844 -4.816406 C 11.253906 -4.199219 11.03125 -3.863281 10.863281 -3.695312 C 10.582031 -4.253906 10.191406 -5.710938 10.246094 -7.894531 C 10.246094 -9.015625 10.246094 -9.96875 10.304688 -10.75 C 10.359375 -13.214844 10.414062 -14.109375 9.40625 -14.503906 C 8.511719 -14.78125 7.894531 -13.941406 7.726562 -13.664062 C 5.261719 -10.304688 3.078125 -6.886719 0.785156 -2.742188 C 1.679688 -6.605469 3.304688 -12.152344 5.375 -16.796875 C 5.597656 -17.359375 5.375 -18.03125 4.816406 -18.253906 C 4.253906 -18.476562 3.640625 -18.253906 3.359375 -17.695312 C 1.792969 -14.054688 0.222656 -9.40625 -0.953125 -4.816406 C -2.800781 2.574219 -2.070312 2.910156 -1.398438 3.246094 C -1.230469 3.304688 -1.0625 3.359375 -0.894531 3.359375 C -0.335938 3.359375 0.167969 2.96875 0.617188 2.128906 C 3.304688 -3.023438 5.542969 -6.832031 8.121094 -10.582031 C 8.121094 -9.800781 8.0625 -8.902344 8.0625 -7.894531 C 8.0625 -6.160156 8.289062 -2.015625 10.359375 -1.457031 C 12.039062 -1.0625 13.101562 -3.136719 13.496094 -3.808594 C 13.832031 -4.421875 14.277344 -5.375 14.78125 -6.4375 C 15.398438 -7.726562 16.40625 -9.855469 17.246094 -11.3125 C 17.359375 -7.390625 18.421875 -4.984375 20.4375 -4.253906 C 23.183594 -3.191406 26.933594 -5.488281 31.691406 -10.976562 C 32.085938 -11.421875 32.027344 -12.09375 31.582031 -12.488281 Z M 31.582031 -12.488281 "/></g></g></g><g fill="#ffffff" fill-opacity="1"><g transform="translate(197.823364, 137.890508)"><g><path d="M 23.40625 -12.429688 C 22.902344 -12.65625 22.230469 -12.429688 22.007812 -11.925781 C 17.75 -3.246094 14.558594 -0.503906 13.046875 -0.785156 C 12.429688 -0.894531 10.414062 -2.070312 9.910156 -11.871094 C 9.910156 -12.320312 9.574219 -12.710938 9.183594 -12.824219 C 8.734375 -12.933594 8.230469 -12.824219 8.007812 -12.429688 C 7.671875 -12.039062 7.335938 -11.589844 7 -11.085938 C 5.597656 -9.183594 3.75 -6.605469 1.511719 -4.199219 C 1.175781 -3.808594 0.894531 -3.582031 0.726562 -3.472656 C 0.335938 -5.429688 2.40625 -12.933594 5.710938 -15.285156 C 6.664062 -15.957031 7.953125 -16.460938 9.6875 -14.445312 C 10.078125 -14 10.75 -13.941406 11.199219 -14.335938 C 11.648438 -14.671875 11.703125 -15.398438 11.367188 -15.847656 C 9.238281 -18.308594 7.222656 -18.253906 5.878906 -17.804688 C 1.566406 -16.292969 -1.34375 -8.007812 -1.457031 -4.199219 C -1.511719 -2.632812 -1.0625 -1.625 -0.167969 -1.289062 C 1.230469 -0.726562 2.632812 -2.238281 3.078125 -2.742188 C 4.984375 -4.816406 6.71875 -7.054688 7.953125 -8.792969 C 8.566406 -2.40625 10.078125 0.785156 12.597656 1.34375 C 12.824219 1.34375 13.046875 1.398438 13.269531 1.398438 C 17.078125 1.398438 21.167969 -5.261719 23.910156 -10.976562 C 24.191406 -11.535156 23.964844 -12.152344 23.40625 -12.429688 Z M 23.40625 -12.429688 "/></g></g></g><g fill="#ffffff" fill-opacity="1"><g transform="translate(218.652456, 137.890508)"><g><path d="M 16.460938 -52.46875 C 16.070312 -52.972656 15.511719 -53.195312 14.949219 -53.140625 C 11.757812 -52.578125 8.34375 -40.652344 7.390625 -37.011719 C 4.589844 -26.316406 1.0625 -11.144531 -1.792969 2.464844 C -3.136719 8.902344 -4.199219 14.335938 -4.871094 18.253906 C -5.992188 24.863281 -5.824219 25.703125 -4.757812 25.980469 C -4.648438 26.039062 -4.535156 26.039062 -4.421875 26.039062 C -3.414062 26.039062 -2.910156 24.695312 -2.40625 23.238281 C -2.238281 22.679688 -2.519531 22.0625 -3.078125 21.894531 C -3.136719 21.839844 -3.191406 21.839844 -3.246094 21.839844 C -2.070312 13.773438 2.742188 -9.6875 7.671875 -29.339844 C 7.671875 -29.398438 7.726562 -29.453125 7.785156 -29.507812 C 15.0625 -41.042969 17.917969 -50.226562 16.460938 -52.46875 Z M 9.574219 -36.902344 C 11.703125 -44.796875 13.605469 -48.605469 14.613281 -50.171875 C 14.390625 -48.101562 13.160156 -43.621094 9.574219 -36.902344 Z M 9.574219 -36.902344 "/></g></g></g><g fill="#ffffff" fill-opacity="1"><g transform="translate(114.564534, 193.390504)"><g><path d="M 24.078125 -12.597656 C 23.574219 -12.878906 22.902344 -12.710938 22.621094 -12.207031 C 17.863281 -4.589844 9.296875 1.847656 6.101562 1.230469 C 5.597656 1.175781 4.925781 0.894531 4.589844 -0.390625 C 4.757812 -0.617188 5.039062 -0.839844 5.320312 -1.0625 C 6.214844 -1.847656 7.503906 -2.96875 8.625 -4.367188 C 10.414062 -6.71875 11.199219 -9.574219 10.527344 -11.199219 C 10.191406 -11.871094 9.632812 -12.320312 8.902344 -12.375 C 7.335938 -12.488281 5.542969 -10.917969 3.414062 -7.617188 C 2.40625 -6.046875 1.457031 -4.3125 0.617188 -2.464844 C 2.351562 -10.246094 4.480469 -19.597656 6.101562 -26.597656 C 13.605469 -40.035156 17.359375 -50.117188 15.789062 -52.300781 C 15.453125 -52.746094 14.894531 -52.972656 14.335938 -52.859375 C 11.925781 -52.410156 8.175781 -44.234375 5.65625 -33.878906 C 5.261719 -32.308594 4.703125 -30.011719 4.085938 -27.324219 C 4.03125 -27.269531 4.03125 -27.15625 4.03125 -27.046875 C 0.839844 -13.550781 -4.535156 10.304688 -4.589844 12.152344 C -4.589844 12.710938 -4.199219 13.160156 -3.695312 13.214844 C -3.640625 13.269531 -3.582031 13.269531 -3.472656 13.269531 C -3.023438 13.269531 -2.632812 12.933594 -2.464844 12.488281 L -2.238281 11.703125 C -0.390625 5.878906 1.960938 -1.457031 5.207031 -6.4375 C 7.113281 -9.40625 8.230469 -10.078125 8.566406 -10.191406 C 8.734375 -9.574219 8.457031 -7.671875 6.886719 -5.65625 C 5.933594 -4.480469 4.757812 -3.414062 3.863281 -2.6875 C 2.742188 -1.679688 2.238281 -1.230469 2.351562 -0.449219 C 2.910156 2.296875 4.480469 3.136719 5.710938 3.359375 C 5.992188 3.414062 6.269531 3.414062 6.550781 3.414062 C 11.925781 3.414062 20.664062 -5.039062 24.414062 -11.085938 C 24.75 -11.589844 24.582031 -12.261719 24.078125 -12.597656 Z M 13.941406 -49.78125 C 13.550781 -47.484375 11.925781 -42.722656 8.175781 -35.109375 C 10.359375 -43.226562 12.65625 -47.875 13.941406 -49.78125 Z M 13.941406 -49.78125 "/></g></g></g><g fill="#ffffff" fill-opacity="1"><g transform="translate(136.401485, 193.390504)"><g><path d="M 24.582031 -12.65625 C 24.023438 -12.933594 23.351562 -12.710938 23.125 -12.152344 C 16.6875 1.398438 10.582031 8.34375 9.238281 8.121094 C 9.128906 8.0625 7.167969 6.160156 13.496094 -13.269531 C 13.664062 -13.773438 14.054688 -14.949219 13.160156 -15.566406 C 12.320312 -16.238281 11.367188 -15.621094 9.800781 -14.558594 C 8.121094 -13.496094 5.824219 -11.984375 4.03125 -12.207031 C 9.742188 -22.0625 9.183594 -24.246094 7.894531 -25.085938 C 5.878906 -26.261719 2.96875 -22.847656 1.625 -20.886719 C -1.121094 -16.628906 -1.0625 -12.765625 1.847656 -10.808594 C 4.816406 -8.734375 8.679688 -11.253906 10.976562 -12.765625 C 11.03125 -12.824219 11.03125 -12.824219 11.085938 -12.878906 C 8.902344 -5.992188 7.503906 -0.558594 7 3.191406 C 6.382812 7.335938 6.832031 9.519531 8.398438 10.136719 C 8.679688 10.191406 8.902344 10.246094 9.183594 10.246094 C 13.664062 10.246094 21.445312 -3.527344 25.085938 -11.199219 C 25.308594 -11.757812 25.085938 -12.429688 24.582031 -12.65625 Z M 1.960938 -16.519531 C 2.742188 -19.542969 5.375 -22.34375 6.550781 -23.015625 C 6.4375 -22.117188 5.824219 -19.597656 2.238281 -13.382812 C 1.847656 -14 1.566406 -14.949219 1.960938 -16.519531 Z M 1.960938 -16.519531 "/></g></g></g><g fill="#ffffff" fill-opacity="1"><g transform="translate(158.742365, 193.390504)"><g><path d="M 16.351562 -12.710938 C 15.847656 -13.046875 15.230469 -12.878906 14.894531 -12.375 C 11.144531 -6.328125 4.871094 -0.617188 2.96875 -1.398438 C 2.742188 -1.511719 0.953125 -2.574219 3.414062 -12.039062 C 3.527344 -12.65625 3.191406 -13.214844 2.632812 -13.382812 C 2.015625 -13.496094 1.457031 -13.160156 1.289062 -12.597656 C -0.726562 -4.703125 -0.449219 -0.503906 2.070312 0.558594 C 2.464844 0.726562 2.855469 0.785156 3.246094 0.785156 C 7.449219 0.785156 13.886719 -6.71875 16.742188 -11.253906 C 17.023438 -11.757812 16.855469 -12.429688 16.351562 -12.710938 Z M 3.136719 -17.246094 C 5.992188 -17.078125 5.933594 -20.664062 3.640625 -19.878906 C 2.464844 -19.542969 0.953125 -17.359375 3.136719 -17.246094 Z M 3.136719 -17.246094 "/></g></g></g><g fill="#ffffff" fill-opacity="1"><g transform="translate(172.908387, 193.390504)"><g><path d="M 24.917969 -12.824219 C 24.46875 -13.214844 23.796875 -13.160156 23.40625 -12.710938 C 18.980469 -7.617188 12.039062 0.503906 10.917969 1.960938 C 10.582031 2.351562 10.246094 2.800781 9.910156 3.246094 C 9.464844 2.128906 8.902344 1.0625 8.175781 -0.0546875 C 5.488281 -4.199219 3.078125 -8.121094 3.191406 -10.863281 C 3.304688 -13.046875 4.421875 -14.949219 6.269531 -16.070312 C 7.785156 -16.964844 9.464844 -17.132812 10.75 -16.519531 C 11.253906 -16.292969 11.925781 -16.519531 12.152344 -17.078125 C 12.429688 -17.582031 12.207031 -18.253906 11.648438 -18.476562 C 9.742188 -19.375 7.28125 -19.148438 5.152344 -17.917969 C 2.6875 -16.40625 1.230469 -13.886719 1.0625 -10.976562 C 0.894531 -7.558594 3.359375 -3.472656 6.382812 1.121094 C 7.335938 2.574219 7.953125 3.976562 8.34375 5.320312 C 3.976562 11.253906 -0.726562 18.871094 1.679688 21.222656 C 2.070312 21.613281 2.574219 21.78125 3.078125 21.78125 C 3.976562 21.78125 4.984375 21.335938 6.046875 20.496094 C 9.070312 17.972656 12.207031 12.261719 10.695312 5.765625 C 11.3125 4.984375 11.925781 4.144531 12.597656 3.304688 C 13.71875 1.902344 20.664062 -6.214844 25.03125 -11.3125 C 25.421875 -11.757812 25.367188 -12.429688 24.917969 -12.824219 Z M 6.71875 16.460938 C 5.207031 18.703125 3.695312 19.597656 3.191406 19.652344 C 2.96875 18.871094 3.695312 15.621094 8.902344 8.230469 C 9.128906 12.261719 7.449219 15.34375 6.71875 16.460938 Z M 6.71875 16.460938 "/></g></g></g><g fill="#ffffff" fill-opacity="1"><g transform="translate(195.473239, 193.390504)"><g><path d="M 26.484375 -12.765625 C 25.980469 -13.101562 25.308594 -12.933594 25.03125 -12.429688 C 17.078125 0.390625 14.277344 0.113281 14 0.0546875 C 13.4375 -0.113281 12.824219 -1.230469 12.65625 -3.976562 C 12.597656 -5.207031 12.320312 -8.902344 9.855469 -9.238281 C 7 -9.632812 3.582031 -4.648438 0.503906 1.792969 C 2.40625 -6.71875 5.152344 -18.421875 7.167969 -26.710938 C 14.671875 -40.203125 18.476562 -50.339844 16.910156 -52.523438 C 16.574219 -53.027344 16.015625 -53.195312 15.453125 -53.082031 C 13.046875 -52.636719 9.296875 -44.460938 6.777344 -34.101562 C 6.664062 -33.710938 -3.359375 7.222656 -3.695312 12.261719 C -3.695312 12.824219 -3.359375 13.269531 -2.800781 13.382812 C -2.742188 13.382812 -2.6875 13.382812 -2.632812 13.382812 C -2.183594 13.382812 -1.734375 13.101562 -1.566406 12.710938 C 3.304688 -1.289062 8.0625 -7.113281 9.464844 -7.113281 C 9.519531 -7.113281 9.519531 -7.113281 9.519531 -7.113281 C 9.742188 -7.113281 10.359375 -6.4375 10.527344 -3.863281 C 10.582031 -2.519531 10.863281 1.457031 13.4375 2.128906 C 14.558594 2.40625 17.863281 3.246094 26.820312 -11.3125 C 27.15625 -11.816406 26.988281 -12.488281 26.484375 -12.765625 Z M 15.0625 -50.003906 C 14.613281 -47.765625 13.046875 -42.949219 9.296875 -35.390625 C 11.421875 -43.453125 13.71875 -48.101562 15.0625 -50.003906 Z M 15.0625 -50.003906 "/></g></g></g><g fill="#ffffff" fill-opacity="1"><g transform="translate(219.605875, 193.390504)"><g><path d="M 22.511719 -12.488281 C 22.007812 -12.765625 21.335938 -12.597656 21.054688 -12.039062 C 19.710938 -9.742188 16.183594 -3.527344 14.167969 -3.75 C 13.773438 -3.808594 12.65625 -4.367188 11.535156 -8.289062 C 10.75 -11.03125 9.6875 -13.605469 7.617188 -13.71875 C 6.101562 -13.832031 4.421875 -12.65625 1.847656 -7.839844 C 2.519531 -10.246094 3.246094 -12.65625 3.808594 -14.613281 C 4.03125 -15.34375 4.199219 -15.957031 4.367188 -16.574219 C 4.535156 -17.132812 4.199219 -17.75 3.640625 -17.917969 C 3.078125 -18.085938 2.464844 -17.75 2.296875 -17.132812 C 2.128906 -16.574219 1.960938 -15.902344 1.734375 -15.230469 C 0.28125 -10.246094 -1.902344 -2.6875 -2.464844 1.902344 C -2.519531 2.40625 -2.183594 2.910156 -1.679688 3.023438 C -1.566406 3.078125 -1.511719 3.078125 -1.398438 3.078125 C -0.953125 3.078125 -0.558594 2.800781 -0.390625 2.40625 C 4.871094 -10.695312 7 -11.589844 7.503906 -11.589844 C 7.617188 -11.589844 8.398438 -11.367188 9.464844 -7.671875 C 10.582031 -3.808594 12.039062 -1.847656 13.941406 -1.625 C 16.796875 -1.289062 19.375 -4.816406 22.902344 -10.976562 C 23.238281 -11.535156 23.015625 -12.152344 22.511719 -12.488281 Z M 22.511719 -12.488281 "/></g></g></g><g fill="#ffffff" fill-opacity="1"><g transform="translate(239.595086, 193.390504)"><g><path d="M 23.40625 -12.429688 C 22.902344 -12.65625 22.230469 -12.429688 22.007812 -11.925781 C 17.75 -3.246094 14.558594 -0.503906 13.046875 -0.785156 C 12.429688 -0.894531 10.414062 -2.070312 9.910156 -11.871094 C 9.910156 -12.320312 9.574219 -12.710938 9.183594 -12.824219 C 8.734375 -12.933594 8.230469 -12.824219 8.007812 -12.429688 C 7.671875 -12.039062 7.335938 -11.589844 7 -11.085938 C 5.597656 -9.183594 3.75 -6.605469 1.511719 -4.199219 C 1.175781 -3.808594 0.894531 -3.582031 0.726562 -3.472656 C 0.335938 -5.429688 2.40625 -12.933594 5.710938 -15.285156 C 6.664062 -15.957031 7.953125 -16.460938 9.6875 -14.445312 C 10.078125 -14 10.75 -13.941406 11.199219 -14.335938 C 11.648438 -14.671875 11.703125 -15.398438 11.367188 -15.847656 C 9.238281 -18.308594 7.222656 -18.253906 5.878906 -17.804688 C 1.566406 -16.292969 -1.34375 -8.007812 -1.457031 -4.199219 C -1.511719 -2.632812 -1.0625 -1.625 -0.167969 -1.289062 C 1.230469 -0.726562 2.632812 -2.238281 3.078125 -2.742188 C 4.984375 -4.816406 6.71875 -7.054688 7.953125 -8.792969 C 8.566406 -2.40625 10.078125 0.785156 12.597656 1.34375 C 12.824219 1.34375 13.046875 1.398438 13.269531 1.398438 C 17.078125 1.398438 21.167969 -5.261719 23.910156 -10.976562 C 24.191406 -11.535156 23.964844 -12.152344 23.40625 -12.429688 Z M 23.40625 -12.429688 "/></g></g></g><g fill="#ffffff" fill-opacity="1"><g transform="translate(159.130937, 248.8905)"><g><path d="M 31.582031 -12.488281 C 31.132812 -12.878906 30.40625 -12.824219 30.011719 -12.375 C 25.535156 -7.113281 22.511719 -5.765625 21.167969 -6.269531 C 19.988281 -6.71875 19.316406 -8.960938 19.375 -12.488281 C 19.375 -13.101562 19.429688 -14.613281 18.199219 -14.894531 C 16.796875 -15.230469 15.789062 -13.605469 12.824219 -7.390625 C 12.320312 -6.328125 11.871094 -5.375 11.589844 -4.816406 C 11.253906 -4.199219 11.03125 -3.863281 10.863281 -3.695312 C 10.582031 -4.253906 10.191406 -5.710938 10.246094 -7.894531 C 10.246094 -9.015625 10.246094 -9.96875 10.304688 -10.75 C 10.359375 -13.214844 10.414062 -14.109375 9.40625 -14.503906 C 8.511719 -14.78125 7.894531 -13.941406 7.726562 -13.664062 C 5.261719 -10.304688 3.078125 -6.886719 0.785156 -2.742188 C 1.679688 -6.605469 3.304688 -12.152344 5.375 -16.796875 C 5.597656 -17.359375 5.375 -18.03125 4.816406 -18.253906 C 4.253906 -18.476562 3.640625 -18.253906 3.359375 -17.695312 C 1.792969 -14.054688 0.222656 -9.40625 -0.953125 -4.816406 C -2.800781 2.574219 -2.070312 2.910156 -1.398438 3.246094 C -1.230469 3.304688 -1.0625 3.359375 -0.894531 3.359375 C -0.335938 3.359375 0.167969 2.96875 0.617188 2.128906 C 3.304688 -3.023438 5.542969 -6.832031 8.121094 -10.582031 C 8.121094 -9.800781 8.0625 -8.902344 8.0625 -7.894531 C 8.0625 -6.160156 8.289062 -2.015625 10.359375 -1.457031 C 12.039062 -1.0625 13.101562 -3.136719 13.496094 -3.808594 C 13.832031 -4.421875 14.277344 -5.375 14.78125 -6.4375 C 15.398438 -7.726562 16.40625 -9.855469 17.246094 -11.3125 C 17.359375 -7.390625 18.421875 -4.984375 20.4375 -4.253906 C 23.183594 -3.191406 26.933594 -5.488281 31.691406 -10.976562 C 32.085938 -11.421875 32.027344 -12.09375 31.582031 -12.488281 Z M 31.582031 -12.488281 "/></g></g></g><g fill="#ffffff" fill-opacity="1"><g transform="translate(188.302864, 248.8905)"><g><path d="M 3.246094 -2.464844 C 2.070312 -2.128906 0.953125 -0.28125 2.40625 -0.167969 C 4.984375 0 5.488281 -3.136719 3.246094 -2.464844 Z M 3.246094 -2.464844 "/></g></g></g><g fill="#ffffff" fill-opacity="1"><g transform="translate(195.805816, 248.8905)"><g><path d="M 22.285156 -12.09375 C 21.78125 -12.375 21.109375 -12.207031 20.832031 -11.703125 C 15.511719 -3.191406 11.03125 0.617188 10.078125 0.28125 C 10.078125 0.28125 8.960938 -0.335938 10.023438 -6.777344 C 10.414062 -8.960938 10.582031 -10.191406 9.519531 -10.640625 C 8.511719 -11.03125 7.894531 -10.191406 6.71875 -8.511719 C 5.765625 -7.167969 4.480469 -5.375 3.078125 -4.144531 C 2.910156 -4.03125 2.296875 -3.472656 2.015625 -3.695312 C 1.175781 -4.367188 1.007812 -8.007812 2.96875 -11.367188 C 3.304688 -11.871094 3.078125 -12.542969 2.574219 -12.878906 C 2.070312 -13.160156 1.398438 -12.992188 1.121094 -12.488281 C -1.121094 -8.566406 -1.34375 -3.695312 0.617188 -2.070312 C 1.121094 -1.625 2.519531 -0.839844 4.480469 -2.464844 C 5.765625 -3.582031 6.886719 -5.039062 7.785156 -6.269531 C 7 -1.0625 7.449219 1.566406 9.296875 2.296875 C 9.574219 2.40625 9.855469 2.40625 10.078125 2.40625 C 14.335938 2.40625 21.222656 -8.34375 22.621094 -10.582031 C 22.957031 -11.085938 22.789062 -11.757812 22.285156 -12.09375 Z M 22.285156 -12.09375 "/></g></g></g></svg>