<svg xmlns="http://www.w3.org/2000/svg" xmlns:xlink="http://www.w3.org/1999/xlink" width="500" zoomAndPan="magnify" viewBox="0 0 375 374.999991" height="500" preserveAspectRatio="xMidYMid meet" version="1.0"><defs><g/><clipPath id="id1"><path d="M 85.519531 200.175781 L 289.519531 200.175781 L 289.519531 290.761719 L 85.519531 290.761719 Z M 85.519531 200.175781 " clip-rule="nonzero"/></clipPath><clipPath id="id2"><path d="M 85.519531 84.277344 L 289.519531 84.277344 L 289.519531 175.027344 L 85.519531 175.027344 Z M 85.519531 84.277344 " clip-rule="nonzero"/></clipPath><clipPath id="id3"><path d="M 120.953125 200.5 L 253.703125 200.5 L 253.703125 253.703125 L 120.953125 253.703125 Z M 120.953125 200.5 " clip-rule="nonzero"/></clipPath><clipPath id="id4"><path d="M 120.953125 120.953125 L 253.703125 120.953125 L 253.703125 174.953125 L 120.953125 174.953125 Z M 120.953125 120.953125 " clip-rule="nonzero"/></clipPath></defs><rect x="-37.5" width="450" fill="#ffffff" y="-37.499999" height="449.999989" fill-opacity="1"/><rect x="-37.5" width="450" fill="#f1e9e4" y="-37.499999" height="449.999989" fill-opacity="1"/><rect x="-37.5" width="450" fill="#ffffff" y="-37.499999" height="449.999989" fill-opacity="1"/><rect x="-37.5" width="450" fill="#f1e9e4" y="-37.499999" height="449.999989" fill-opacity="1"/><g clip-path="url(#id1)"><path fill="#545454" d="M 187.484375 290.761719 C 131.289062 290.761719 85.519531 244.992188 85.519531 188.726562 C 85.519531 132.464844 131.289062 86.761719 187.484375 86.761719 C 243.679688 86.761719 289.449219 132.53125 289.449219 188.726562 C 289.519531 244.992188 243.75 290.761719 187.484375 290.761719 Z M 187.484375 88.488281 C 132.1875 88.488281 87.246094 133.429688 87.246094 188.726562 C 87.246094 244.023438 132.257812 289.035156 187.484375 289.035156 C 242.714844 289.035156 287.792969 244.023438 287.792969 188.726562 C 287.792969 133.429688 242.78125 88.488281 187.484375 88.488281 Z M 187.484375 88.488281 " fill-opacity="1" fill-rule="nonzero"/></g><path stroke-linecap="round" transform="matrix(1.505658, 0, 0, 1.5, 75.431551, 187.499988)" fill="none" stroke-linejoin="miter" d="M 0.499478 0.00000820833 L 38.852205 0.00000820833 " stroke="#545454" stroke-width="1" stroke-opacity="1" stroke-miterlimit="4"/><path stroke-linecap="round" transform="matrix(1.505658, 0, 0, 1.5, 240.539022, 187.499988)" fill="none" stroke-linejoin="miter" d="M 0.500743 0.00000820833 L 38.85347 0.00000820833 " stroke="#545454" stroke-width="1" stroke-opacity="1" stroke-miterlimit="4"/><g clip-path="url(#id2)"><path fill="#545454" d="M 187.484375 288.277344 C 131.289062 288.277344 85.519531 242.503906 85.519531 186.242188 C 85.519531 129.976562 131.289062 84.277344 187.484375 84.277344 C 243.679688 84.277344 289.449219 130.046875 289.449219 186.242188 C 289.519531 242.503906 243.75 288.277344 187.484375 288.277344 Z M 187.484375 86 C 132.1875 86 87.246094 130.945312 87.246094 186.242188 C 87.246094 241.539062 132.257812 286.550781 187.484375 286.550781 C 242.714844 286.550781 287.792969 241.539062 287.792969 186.242188 C 287.792969 130.945312 242.78125 86 187.484375 86 Z M 187.484375 86 " fill-opacity="1" fill-rule="nonzero"/></g><g fill="#545454" fill-opacity="1"><g transform="translate(141.692377, 266.771352)"><g><path d="M 11.265625 5.234375 L 10.578125 4.90625 L 12.234375 -5.5625 C 12.367188 -6.4375 12.488281 -7.140625 12.59375 -7.671875 C 12.289062 -7.242188 11.914062 -6.753906 11.46875 -6.203125 C 11.019531 -5.660156 8.671875 -2.910156 4.421875 2.046875 L 3.71875 1.71875 L 6 -11.796875 L 6.875 -11.40625 L 5.390625 -2.6875 C 5.316406 -2.34375 5.253906 -2.019531 5.203125 -1.71875 C 5.148438 -1.414062 5.097656 -1.132812 5.046875 -0.875 C 5.003906 -0.625 4.953125 -0.378906 4.890625 -0.140625 C 4.835938 0.0976562 4.785156 0.335938 4.734375 0.578125 C 5.203125 -0.109375 6.003906 -1.109375 7.140625 -2.421875 L 12.5625 -8.75 L 13.5 -8.328125 L 12.015625 1.15625 C 11.847656 2.238281 11.6875 3.109375 11.53125 3.765625 C 11.78125 3.390625 12.0625 3.007812 12.375 2.625 C 12.695312 2.238281 15.007812 -0.507812 19.3125 -5.625 L 20.140625 -5.234375 Z M 11.265625 5.234375 "/></g></g></g><g fill="#545454" fill-opacity="1"><g transform="translate(158.962748, 274.268561)"><g><path d="M 8.796875 2.359375 L 1.8125 0.484375 L 5.25 -12.296875 L 12.234375 -10.421875 L 12.015625 -9.59375 L 5.921875 -11.234375 L 4.625 -6.40625 L 10.375 -4.859375 L 10.15625 -4.046875 L 4.40625 -5.59375 L 2.921875 -0.09375 L 9.015625 1.546875 Z M 8.796875 2.359375 "/></g></g></g><g fill="#545454" fill-opacity="1"><g transform="translate(170.89832, 277.372705)"><g><path d="M 3.4375 -12.921875 L 7.03125 -12.484375 C 8.65625 -12.285156 9.8125 -11.863281 10.5 -11.21875 C 11.195312 -10.582031 11.484375 -9.703125 11.359375 -8.578125 C 11.265625 -7.828125 10.953125 -7.222656 10.421875 -6.765625 C 9.898438 -6.316406 9.1875 -6.078125 8.28125 -6.046875 L 8.28125 -6 C 9.300781 -5.71875 10.03125 -5.289062 10.46875 -4.71875 C 10.90625 -4.15625 11.066406 -3.414062 10.953125 -2.5 C 10.804688 -1.289062 10.289062 -0.410156 9.40625 0.140625 C 8.53125 0.691406 7.351562 0.878906 5.875 0.703125 L 1.859375 0.21875 Z M 3.65625 -6.96875 L 6.53125 -6.609375 C 7.78125 -6.460938 8.707031 -6.554688 9.3125 -6.890625 C 9.925781 -7.234375 10.285156 -7.84375 10.390625 -8.71875 C 10.492188 -9.59375 10.253906 -10.265625 9.671875 -10.734375 C 9.085938 -11.210938 8.164062 -11.523438 6.90625 -11.671875 L 4.265625 -12 Z M 3.5625 -6.15625 L 2.875 -0.484375 L 5.953125 -0.109375 C 8.390625 0.179688 9.726562 -0.65625 9.96875 -2.625 C 10.1875 -4.4375 9.007812 -5.492188 6.4375 -5.796875 Z M 3.5625 -6.15625 "/></g></g></g><g fill="#545454" fill-opacity="1"><g transform="translate(191.085694, 278.88899)"><g><path d="M 11.109375 -8 C 11.347656 -5.800781 10.953125 -4.070312 9.921875 -2.8125 C 8.890625 -1.550781 7.253906 -0.796875 5.015625 -0.546875 L 1.859375 -0.203125 L 0.40625 -13.359375 L 3.96875 -13.75 C 6.0625 -13.988281 7.710938 -13.617188 8.921875 -12.640625 C 10.140625 -11.660156 10.867188 -10.113281 11.109375 -8 Z M 10.109375 -7.859375 C 9.898438 -9.742188 9.265625 -11.109375 8.203125 -11.953125 C 7.148438 -12.796875 5.695312 -13.117188 3.84375 -12.921875 L 1.421875 -12.65625 L 2.6875 -1.125 L 4.859375 -1.359375 C 8.785156 -1.796875 10.535156 -3.960938 10.109375 -7.859375 Z M 10.109375 -7.859375 "/></g></g></g><g fill="#545454" fill-opacity="1"><g transform="translate(206.205208, 276.944084)"><g><path d="M 8.796875 -2.359375 L 1.8125 -0.484375 L -1.609375 -13.265625 L 5.375 -15.140625 L 5.59375 -14.3125 L -0.5 -12.671875 L 0.796875 -7.84375 L 6.546875 -9.390625 L 6.765625 -8.578125 L 1.015625 -7.03125 L 2.484375 -1.53125 L 8.578125 -3.171875 Z M 8.796875 -2.359375 "/></g></g></g><g fill="#545454" fill-opacity="1"><g transform="translate(218.045426, 273.644792)"><g><path d="M 3.78125 -15.96875 L 4.703125 -16.359375 L 5.296875 -2.234375 L 4.546875 -1.921875 L -5.140625 -12.203125 L -4.234375 -12.578125 L 2.328125 -5.5625 C 3.328125 -4.507812 4.039062 -3.707031 4.46875 -3.15625 C 4.394531 -3.613281 4.335938 -4.351562 4.296875 -5.375 Z M 3.78125 -15.96875 "/></g></g></g><g fill="#545454" fill-opacity="1"><g transform="translate(229.489865, 268.549751)"><g/></g></g><g fill="#545454" fill-opacity="1"><g transform="translate(118.883259, 151.009857)"><g><path d="M 0.390625 -9.46875 L -2.453125 -4.90625 L 0.53125 -0.859375 L 0 0 L -8.46875 -11.546875 L -8.15625 -12.03125 L 5.875 -9.453125 L 5.328125 -8.5625 Z M -2.984375 -5.625 L -0.484375 -9.640625 L -5.46875 -10.640625 C -5.863281 -10.703125 -6.40625 -10.820312 -7.09375 -11 C -6.675781 -10.539062 -6.320312 -10.113281 -6.03125 -9.71875 Z M -2.984375 -5.625 "/></g></g></g><g fill="#545454" fill-opacity="1"><g transform="translate(124.558557, 141.487095)"><g><path d="M 5.125 -5.71875 L -7.25 -10.21875 L -7.296875 -10.15625 C -6.710938 -9.695312 -6.128906 -9.207031 -5.546875 -8.6875 L 1.84375 -2.0625 L 1.25 -1.390625 L -8.609375 -10.21875 L -7.65625 -11.28125 L 4.140625 -7.015625 L 4.1875 -7.0625 L -1.359375 -18.3125 L -0.4375 -19.34375 L 9.421875 -10.515625 L 8.796875 -9.828125 L 1.328125 -16.515625 C 0.804688 -16.984375 0.289062 -17.492188 -0.21875 -18.046875 L -0.265625 -18 L 5.53125 -6.171875 Z M 5.125 -5.71875 "/></g></g></g><g fill="#545454" fill-opacity="1"><g transform="translate(135.331301, 129.767786)"><g><path d="M 3.59375 -8.765625 L -0.625 -5.453125 L 0.796875 -0.625 L 0 0 L -4.015625 -13.734375 L -3.5625 -14.09375 L 8.75 -6.875 L 7.921875 -6.234375 Z M -0.890625 -6.3125 L 2.828125 -9.234375 L -1.515625 -11.859375 C -1.867188 -12.066406 -2.335938 -12.363281 -2.921875 -12.75 C -2.679688 -12.1875 -2.488281 -11.664062 -2.34375 -11.1875 Z M -0.890625 -6.3125 "/></g></g></g><g fill="#545454" fill-opacity="1"><g transform="translate(144.26351, 122.832773)"><g><path d="M 1.609375 -0.953125 L -5.09375 -12.359375 L -4.296875 -12.828125 L 1.96875 -2.171875 L 7.421875 -5.359375 L 7.859375 -4.609375 Z M 1.609375 -0.953125 "/></g></g></g><g fill="#545454" fill-opacity="1"><g transform="translate(157.583569, 115.607595)"><g><path d="M 10.1875 -3.453125 L 9.125 -3.09375 L 2.078125 -8.078125 L 0.921875 -6.03125 L 2.65625 -0.890625 L 1.78125 -0.609375 L -2.46875 -13.140625 L -1.59375 -13.421875 L 0.609375 -6.90625 L 1.53125 -8.78125 L 4.703125 -15.5625 L 5.8125 -15.9375 L 2.46875 -8.90625 Z M 10.1875 -3.453125 "/></g></g></g><g fill="#545454" fill-opacity="1"><g transform="translate(167.921668, 112.103354)"><g><path d="M 1.6875 -6.1875 L 2.75 -0.515625 L 1.84375 -0.34375 L -0.578125 -13.359375 L 2.515625 -13.9375 C 4.128906 -14.238281 5.375 -14.160156 6.25 -13.703125 C 7.125 -13.242188 7.671875 -12.414062 7.890625 -11.21875 C 8.054688 -10.34375 7.96875 -9.5625 7.625 -8.875 C 7.289062 -8.195312 6.671875 -7.640625 5.765625 -7.203125 L 10.40625 -1.9375 L 9.328125 -1.734375 L 4.90625 -6.78125 Z M 1.546875 -6.96875 L 4.03125 -7.4375 C 5.125 -7.632812 5.925781 -8.03125 6.4375 -8.625 C 6.945312 -9.226562 7.113281 -10.015625 6.9375 -10.984375 C 6.757812 -11.960938 6.328125 -12.625 5.640625 -12.96875 C 4.960938 -13.3125 3.957031 -13.359375 2.625 -13.109375 L 0.46875 -12.703125 Z M 1.546875 -6.96875 "/></g></g></g><g fill="#545454" fill-opacity="1"><g transform="translate(179.151033, 110.197814)"><g><path d="M 1.875 -0.140625 L 0.84375 -13.328125 L 1.75 -13.40625 L 2.78125 -0.21875 Z M 1.875 -0.140625 "/></g></g></g><g fill="#545454" fill-opacity="1"><g transform="translate(184.22505, 109.683099)"><g><path d="M 9.25 -3.203125 C 9.21875 -2.097656 8.789062 -1.226562 7.96875 -0.59375 C 7.144531 0.03125 6.0625 0.328125 4.71875 0.296875 C 3.101562 0.253906 1.867188 0.0390625 1.015625 -0.34375 L 1.03125 -1.265625 C 1.976562 -0.835938 3.191406 -0.601562 4.671875 -0.5625 C 5.753906 -0.539062 6.617188 -0.769531 7.265625 -1.25 C 7.910156 -1.726562 8.242188 -2.375 8.265625 -3.1875 C 8.273438 -3.6875 8.175781 -4.101562 7.96875 -4.4375 C 7.769531 -4.769531 7.429688 -5.078125 6.953125 -5.359375 C 6.484375 -5.640625 5.789062 -5.945312 4.875 -6.28125 C 3.539062 -6.78125 2.617188 -7.304688 2.109375 -7.859375 C 1.609375 -8.410156 1.367188 -9.132812 1.390625 -10.03125 C 1.410156 -11.019531 1.816406 -11.816406 2.609375 -12.421875 C 3.398438 -13.035156 4.40625 -13.328125 5.625 -13.296875 C 6.863281 -13.273438 8.023438 -13.015625 9.109375 -12.515625 L 8.75 -11.734375 C 7.664062 -12.210938 6.625 -12.460938 5.625 -12.484375 C 4.644531 -12.503906 3.859375 -12.296875 3.265625 -11.859375 C 2.679688 -11.421875 2.378906 -10.8125 2.359375 -10.03125 C 2.347656 -9.539062 2.425781 -9.132812 2.59375 -8.8125 C 2.769531 -8.5 3.054688 -8.210938 3.453125 -7.953125 C 3.847656 -7.691406 4.535156 -7.375 5.515625 -7 C 6.535156 -6.625 7.300781 -6.265625 7.8125 -5.921875 C 8.320312 -5.578125 8.691406 -5.1875 8.921875 -4.75 C 9.148438 -4.320312 9.257812 -3.804688 9.25 -3.203125 Z M 9.25 -3.203125 "/></g></g></g><g fill="#545454" fill-opacity="1"><g transform="translate(194.417435, 109.794031)"><g><path d="M 11.28125 1.984375 L 10.359375 1.828125 L 11.484375 -4.578125 L 3.875 -5.921875 L 2.75 0.484375 L 1.84375 0.328125 L 4.140625 -12.703125 L 5.046875 -12.546875 L 4.03125 -6.765625 L 11.640625 -5.421875 L 12.65625 -11.203125 L 13.578125 -11.046875 Z M 11.28125 1.984375 "/></g></g></g><g fill="#545454" fill-opacity="1"><g transform="translate(207.506728, 112.095314)"><g><path d="M 10.796875 3.890625 L 9.9375 3.578125 L 6.546875 -10.125 L 6.484375 -10.140625 C 6.078125 -8.796875 5.753906 -7.789062 5.515625 -7.125 L 2.609375 0.9375 L 1.765625 0.640625 L 6.25 -11.8125 L 7.109375 -11.5 L 10.515625 2.203125 L 10.5625 2.21875 C 10.875 1.175781 11.195312 0.191406 11.53125 -0.734375 L 14.453125 -8.859375 L 15.28125 -8.5625 Z M 10.796875 3.890625 "/></g></g></g><g fill="#545454" fill-opacity="1"><g transform="translate(220.083139, 116.726982)"><g><path d="M 9.46875 -0.109375 L 4.765625 -2.703125 L 0.890625 0.484375 L 0 0 L 11.09375 -9.046875 L 11.59375 -8.765625 L 9.734375 5.375 L 8.828125 4.875 Z M 5.453125 -3.265625 L 9.609375 -0.984375 L 10.328125 -6.015625 C 10.378906 -6.421875 10.472656 -6.96875 10.609375 -7.65625 C 10.179688 -7.226562 9.773438 -6.847656 9.390625 -6.515625 Z M 5.453125 -3.265625 "/></g></g></g><g fill="#545454" fill-opacity="1"><g transform="translate(234.374362, 125.027535)"><g><path d="M 5.625 5.234375 L 10.34375 -7.078125 L 10.28125 -7.125 C 9.8125 -6.539062 9.3125 -5.960938 8.78125 -5.390625 L 2.03125 1.875 L 1.375 1.28125 L 10.375 -8.421875 L 11.421875 -7.453125 L 6.921875 4.265625 L 6.96875 4.296875 L 18.328125 -1.03125 L 19.34375 -0.09375 L 10.34375 9.609375 L 9.65625 8.96875 L 16.484375 1.625 C 16.960938 1.113281 17.484375 0.609375 18.046875 0.109375 L 18.015625 0.0625 L 6.0625 5.640625 Z M 5.625 5.234375 "/></g></g></g><g fill="#545454" fill-opacity="1"><g transform="translate(245.941924, 136.324593)"><g><path d="M 1.484375 0.6875 C 1.941406 0.3125 2.320312 0.304688 2.625 0.671875 C 2.9375 1.054688 2.863281 1.4375 2.40625 1.8125 C 1.945312 2.195312 1.5625 2.195312 1.25 1.8125 C 0.945312 1.445312 1.023438 1.070312 1.484375 0.6875 Z M 1.484375 0.6875 "/></g></g></g><g fill="#545454" fill-opacity="1"><g transform="translate(249.136201, 139.816983)"><g><path d="M 17.390625 2.625 L 10.1875 7.25 C 8.90625 8.0625 7.664062 8.328125 6.46875 8.046875 C 5.269531 7.765625 4.25 6.960938 3.40625 5.640625 C 2.570312 4.359375 2.285156 3.125 2.546875 1.9375 C 2.804688 0.75 3.582031 -0.253906 4.875 -1.078125 L 12.0625 -5.6875 L 12.578125 -4.90625 L 5.375 -0.28125 C 4.300781 0.40625 3.65625 1.234375 3.4375 2.203125 C 3.226562 3.179688 3.46875 4.210938 4.15625 5.296875 C 4.84375 6.359375 5.660156 6.992188 6.609375 7.203125 C 7.566406 7.410156 8.566406 7.179688 9.609375 6.515625 L 16.890625 1.84375 Z M 17.390625 2.625 "/></g></g></g><g clip-path="url(#id3)"><path fill="#545454" d="M 187.304688 253.703125 C 150.734375 253.703125 120.953125 223.917969 120.953125 187.304688 C 120.953125 150.691406 150.734375 120.953125 187.304688 120.953125 C 223.871094 120.953125 253.65625 150.734375 253.65625 187.304688 C 253.703125 223.917969 223.917969 253.703125 187.304688 253.703125 Z M 187.304688 122.074219 C 151.320312 122.074219 122.074219 151.320312 122.074219 187.304688 C 122.074219 223.289062 151.363281 252.578125 187.304688 252.578125 C 223.242188 252.578125 252.578125 223.289062 252.578125 187.304688 C 252.578125 151.320312 223.289062 122.074219 187.304688 122.074219 Z M 187.304688 122.074219 " fill-opacity="1" fill-rule="nonzero"/></g><g clip-path="url(#id4)"><path fill="#545454" d="M 187.304688 253.703125 C 150.734375 253.703125 120.953125 223.917969 120.953125 187.304688 C 120.953125 150.691406 150.734375 120.953125 187.304688 120.953125 C 223.871094 120.953125 253.65625 150.734375 253.65625 187.304688 C 253.703125 223.917969 223.917969 253.703125 187.304688 253.703125 Z M 187.304688 122.074219 C 151.320312 122.074219 122.074219 151.320312 122.074219 187.304688 C 122.074219 223.289062 151.363281 252.578125 187.304688 252.578125 C 223.242188 252.578125 252.578125 223.289062 252.578125 187.304688 C 252.578125 151.320312 223.289062 122.074219 187.304688 122.074219 Z M 187.304688 122.074219 " fill-opacity="1" fill-rule="nonzero"/></g><g fill="#545454" fill-opacity="1"><g transform="translate(143.085801, 199.124987)"><g><path d="M 44.71875 -8.773438 C 44.332031 -9.074219 42.953125 -9.203125 35.730469 -9.417969 C 36.632812 -13.113281 37.492188 -16.726562 38.269531 -19.992188 C 39.386719 -24.636719 40.375 -28.679688 40.933594 -31.128906 C 41.75 -34.828125 42.222656 -37.535156 42.4375 -39.429688 C 42.609375 -41.363281 42.523438 -42.738281 41.535156 -43.082031 C 39.558594 -43.769531 36.976562 -39.214844 27.734375 -20.941406 C 25.882812 -17.285156 23.949219 -13.5 22.015625 -9.804688 C 15.824219 -9.976562 10.105469 -10.105469 9.289062 -10.277344 C 8.816406 -10.363281 8.382812 -10.105469 8.296875 -9.632812 C 8.210938 -9.203125 8.511719 -8.773438 8.945312 -8.683594 C 9.847656 -8.46875 14.144531 -8.339844 21.199219 -8.167969 C 17.714844 -1.546875 14.316406 4.472656 11.609375 8.125 C 10.191406 10.0625 8.859375 10.707031 7.652344 9.976562 C 4.472656 8.125 2.019531 -2.792969 5.332031 -10.234375 C 8.167969 -16.640625 13.628906 -16.425781 17.714844 -15.136719 C 18.144531 -15.007812 18.617188 -15.265625 18.746094 -15.695312 C 18.875 -16.125 18.660156 -16.597656 18.1875 -16.726562 C 11.523438 -18.832031 6.40625 -16.769531 3.828125 -10.878906 C 0.558594 -3.570312 2.234375 8.773438 6.835938 11.4375 C 7.996094 12.082031 10.320312 12.683594 12.941406 9.117188 C 15.824219 5.246094 19.390625 -1.160156 23.003906 -8.125 C 23.648438 -8.082031 24.292969 -8.082031 24.9375 -8.082031 C 27.777344 -7.996094 30.828125 -7.910156 33.667969 -7.824219 C 27.003906 20.554688 27.003906 24.292969 28.550781 24.9375 C 28.722656 24.980469 28.851562 25.023438 28.980469 25.023438 C 29.839844 25.023438 30.570312 23.949219 31.171875 22.917969 C 31.386719 22.53125 31.257812 22.015625 30.871094 21.757812 C 30.484375 21.542969 29.96875 21.671875 29.753906 22.058594 C 29.582031 22.316406 29.453125 22.53125 29.324219 22.703125 C 29.324219 21.15625 29.796875 17.199219 31.945312 7.09375 C 32.980469 2.40625 34.140625 -2.75 35.34375 -7.78125 C 39.730469 -7.652344 43.210938 -7.523438 43.902344 -7.351562 C 43.988281 -7.308594 44.117188 -7.265625 44.246094 -7.265625 C 44.503906 -7.265625 44.761719 -7.394531 44.890625 -7.609375 C 45.148438 -7.996094 45.0625 -8.511719 44.71875 -8.773438 Z M 24.980469 -9.71875 C 24.59375 -9.71875 24.25 -9.761719 23.863281 -9.761719 C 25.667969 -13.242188 27.476562 -16.769531 29.195312 -20.207031 C 33.539062 -28.765625 38.871094 -39.300781 40.847656 -41.234375 C 40.890625 -40.332031 40.761719 -37.921875 39.300781 -31.472656 C 38.785156 -29.023438 37.792969 -25.023438 36.675781 -20.378906 C 35.730469 -16.425781 34.828125 -12.8125 34.054688 -9.503906 C 31.644531 -9.546875 28.636719 -9.632812 24.980469 -9.71875 Z M 24.980469 -9.71875 "/></g></g></g><g fill="#545454" fill-opacity="1"><g transform="translate(197.175576, 199.124987)"><g><path d="M 42.179688 -44.03125 C 42.308594 -44.460938 42.007812 -44.933594 41.578125 -45.019531 C 41.148438 -45.148438 40.675781 -44.890625 40.589844 -44.417969 C 34.484375 -20.511719 23.175781 -12.253906 16.941406 -9.460938 C 15.222656 -8.683594 13.199219 -7.996094 11.265625 -7.652344 C 12.769531 -14.058594 14.273438 -20.378906 15.480469 -25.324219 C 16.726562 -30.441406 17.757812 -34.871094 18.53125 -38.054688 C 18.617188 -38.484375 18.316406 -38.957031 17.886719 -39.042969 C 17.457031 -39.128906 16.984375 -38.871094 16.898438 -38.441406 C 16.167969 -35.257812 15.09375 -30.828125 13.84375 -25.710938 C 12.597656 -20.511719 11.179688 -14.621094 9.804688 -8.773438 C 9.117188 -9.332031 8.425781 -9.761719 7.695312 -10.0625 C 5.160156 -11.179688 3.226562 -11.222656 2.449219 -10.191406 C 1.976562 -9.589844 2.019531 -8.726562 2.621094 -7.953125 C 3.570312 -6.792969 5.460938 -5.976562 7.738281 -5.804688 C 8.167969 -5.804688 8.640625 -5.761719 9.117188 -5.804688 C 8.210938 -1.976562 7.351562 1.761719 6.621094 5.203125 C 5.460938 10.40625 4.6875 14.316406 4.214844 17.113281 C 3.441406 21.757812 3.613281 22.703125 4.515625 23.003906 C 4.601562 23.046875 4.730469 23.089844 4.859375 23.089844 C 5.675781 23.089844 6.320312 21.929688 7.394531 19.519531 C 7.566406 19.089844 7.394531 18.617188 6.964844 18.445312 C 6.535156 18.230469 6.0625 18.445312 5.890625 18.875 C 5.71875 19.175781 5.589844 19.476562 5.460938 19.691406 C 6.019531 15.308594 8.296875 4.988281 10.75 -5.546875 C 13.070312 -2.878906 15.308594 0.945312 17.542969 4.730469 C 21.628906 11.609375 25.839844 18.746094 30.871094 19.820312 C 31.300781 19.949219 31.773438 19.992188 32.207031 19.992188 C 33.625 19.992188 35.042969 19.519531 36.417969 18.574219 C 36.761719 18.316406 36.847656 17.800781 36.589844 17.414062 C 36.332031 17.027344 35.816406 16.941406 35.472656 17.199219 C 34.011719 18.1875 32.636719 18.53125 31.214844 18.230469 C 26.875 17.285156 22.875 10.449219 18.960938 3.871094 C 16.769531 0.128906 14.621094 -3.484375 12.382812 -6.191406 C 14.058594 -6.535156 15.824219 -7.136719 17.628906 -7.953125 C 24.121094 -10.835938 35.945312 -19.390625 42.179688 -44.03125 Z M 4.558594 -8.425781 C 4.042969 -8.773438 3.828125 -9.074219 3.785156 -9.203125 C 4.042969 -9.332031 4.988281 -9.460938 7.050781 -8.554688 C 7.652344 -8.296875 8.253906 -7.910156 8.859375 -7.4375 C 7.222656 -7.394531 5.71875 -7.652344 4.558594 -8.425781 Z M 4.558594 -8.425781 "/></g></g></g></svg>