<svg xmlns="http://www.w3.org/2000/svg" xmlns:xlink="http://www.w3.org/1999/xlink" width="500" zoomAndPan="magnify" viewBox="0 0 375 374.999991" height="500" preserveAspectRatio="xMidYMid meet" version="1.0"><defs><g/></defs><g fill="#000000" fill-opacity="1"><g transform="translate(140.013036, 210.374986)"><g><path d="M 7.261719 -7.039062 C 7.261719 -9.460938 7.039062 -10.558594 7.039062 -12.101562 C 6.601562 -14.300781 7.261719 -14.519531 7.261719 -16.941406 C 7.480469 -21.78125 7.917969 -39.820312 11 -43.121094 C 11.21875 -43.121094 12.539062 -43.558594 12.539062 -44.660156 C 12.539062 -46.640625 11.660156 -48.398438 10.339844 -48.398438 C 9.019531 -48.398438 7.480469 -46.417969 6.160156 -40.257812 C 4.839844 -33.660156 -2.640625 3.738281 6.820312 3.738281 C 10.78125 3.738281 12.980469 -6.160156 14.300781 -9.679688 C 15.839844 -14.960938 17.601562 -20.019531 19.578125 -25.300781 L 31.679688 -54.339844 C 31.679688 -54.339844 31.898438 -54.558594 31.898438 -54.78125 C 31.898438 -44.21875 29.917969 -0.441406 36.519531 3.738281 C 37.398438 4.179688 38.28125 4.621094 38.941406 4.621094 C 41.800781 4.621094 43.78125 1.101562 45.097656 -1.320312 L 53.238281 -17.160156 C 54.339844 -18.917969 55 -20.019531 56.097656 -22.21875 C 57.417969 -24.640625 60.5 -31.019531 62.257812 -32.121094 C 62.699219 -26.179688 68.859375 -11.21875 77.878906 -11.21875 C 86.238281 -11.21875 100.757812 -22 100.757812 -24.859375 C 100.757812 -26.398438 100.097656 -26.839844 99.21875 -26.839844 C 95.257812 -26.839844 84.480469 -16.5 78.320312 -16.5 C 68.640625 -16.5 69.078125 -37.179688 63.359375 -38.71875 C 63.140625 -38.71875 62.917969 -38.941406 62.480469 -38.941406 C 58.960938 -38.941406 56.320312 -32.339844 54.78125 -29.699219 C 53.898438 -28.160156 53.460938 -27.28125 52.578125 -25.519531 L 48.179688 -17.378906 C 46.640625 -14.300781 45.539062 -11.878906 44 -9.238281 C 42.679688 -7.039062 40.917969 -2.640625 39.160156 -1.320312 C 38.941406 -3.960938 38.28125 -5.941406 38.058594 -8.800781 C 37.839844 -17.378906 37.179688 -24.859375 37.621094 -34.757812 L 38.058594 -52.140625 C 38.058594 -58.078125 38.941406 -66.21875 33.878906 -66.21875 C 29.699219 -66.21875 27.28125 -58.738281 25.078125 -53.679688 C 21.339844 -44.878906 15.839844 -32.121094 12.980469 -23.101562 Z M 7.261719 -7.039062 "/></g></g></g><g fill="#000000" fill-opacity="1"><g transform="translate(234.171789, 210.374986)"><g><path d="M 10.558594 -0.441406 C 11 0 11.441406 0 12.101562 0 C 14.300781 0 15.839844 -1.539062 16.28125 -4.179688 C 16.5 -5.941406 16.058594 -7.480469 14.960938 -8.359375 C 14.738281 -8.578125 14.519531 -8.800781 14.078125 -8.800781 C 12.761719 -8.800781 10.78125 -8.140625 9.898438 -7.261719 C 9.460938 -6.601562 9.238281 -5.28125 9.238281 -3.960938 C 9.238281 -1.980469 9.460938 -1.320312 10.558594 -0.441406 Z M 10.558594 -0.441406 "/></g></g></g><g fill="#000000" fill-opacity="1"><g transform="translate(112.632828, 232.499985)"><g><path d="M 0.140625 0 L 1.695312 -10.285156 L 3.539062 -10.285156 L 5.09375 0 L 3.625 0 L 3.34375 -2.097656 L 1.890625 -2.097656 L 1.609375 0 Z M 2.699219 -6.941406 L 2.660156 -7.207031 L 2.574219 -7.207031 L 2.53125 -6.941406 L 2.097656 -3.695312 L 3.136719 -3.695312 Z M 2.699219 -6.941406 "/></g></g></g><g fill="#000000" fill-opacity="1"><g transform="translate(126.265826, 232.499985)"><g><path d="M 3.066406 0 L 2.097656 -6.464844 L 2.042969 -6.898438 L 1.960938 -6.898438 L 1.960938 0 L 0.558594 0 L 0.558594 -10.285156 L 2.40625 -10.285156 L 3.304688 -5.585938 L 3.371094 -5.039062 L 3.402344 -5.039062 L 3.472656 -5.585938 L 4.367188 -10.285156 L 6.214844 -10.285156 L 6.214844 0 L 4.8125 0 L 4.8125 -6.898438 L 4.730469 -6.898438 L 4.675781 -6.464844 L 3.707031 0 Z M 3.066406 0 "/></g></g></g><g fill="#000000" fill-opacity="1"><g transform="translate(141.437974, 232.499985)"><g><path d="M 0.140625 0 L 1.695312 -10.285156 L 3.539062 -10.285156 L 5.09375 0 L 3.625 0 L 3.34375 -2.097656 L 1.890625 -2.097656 L 1.609375 0 Z M 2.699219 -6.941406 L 2.660156 -7.207031 L 2.574219 -7.207031 L 2.53125 -6.941406 L 2.097656 -3.695312 L 3.136719 -3.695312 Z M 2.699219 -6.941406 "/></g></g></g><g fill="#000000" fill-opacity="1"><g transform="translate(155.070974, 232.499985)"><g><path d="M 0.558594 -10.285156 L 2.070312 -10.285156 L 2.070312 -1.398438 L 4.074219 -1.398438 L 4.074219 0 L 0.558594 0 Z M 0.558594 -10.285156 "/></g></g></g><g fill="#000000" fill-opacity="1"><g transform="translate(167.598597, 232.499985)"><g/></g></g><g fill="#000000" fill-opacity="1"><g transform="translate(178.153316, 232.499985)"><g><path d="M 2.070312 -10.285156 L 2.070312 -6.691406 L 2.128906 -6.691406 L 2.195312 -6.859375 L 3.457031 -10.285156 L 4.925781 -10.285156 L 3.539062 -6.898438 L 5.109375 0 L 3.640625 0 L 2.589844 -4.476562 L 2.546875 -4.6875 L 2.503906 -4.6875 L 2.421875 -4.476562 L 2.070312 -3.640625 L 2.070312 0 L 0.558594 0 L 0.558594 -10.285156 Z M 2.070312 -10.285156 "/></g></g></g><g fill="#000000" fill-opacity="1"><g transform="translate(191.800309, 232.499985)"><g><path d="M 3.261719 0 L 2.476562 -4.339844 L 2.070312 -4.339844 L 2.070312 0 L 0.558594 0 L 0.558594 -10.285156 L 2.070312 -10.285156 C 3.875 -10.285156 4.644531 -9.265625 4.644531 -7.320312 C 4.644531 -6.296875 4.378906 -5.375 3.804688 -4.980469 L 4.773438 0 Z M 2.070312 -5.738281 C 2.28125 -5.738281 2.5625 -5.765625 2.785156 -5.960938 C 3.007812 -6.15625 3.191406 -6.535156 3.191406 -7.261719 C 3.191406 -7.992188 3.007812 -8.382812 2.785156 -8.578125 C 2.5625 -8.773438 2.28125 -8.789062 2.070312 -8.789062 Z M 2.070312 -5.738281 "/></g></g></g><g fill="#000000" fill-opacity="1"><g transform="translate(205.251414, 232.499985)"><g><path d="M 0.558594 -10.285156 L 2.070312 -10.285156 L 2.070312 0 L 0.558594 0 Z M 0.558594 -10.285156 "/></g></g></g><g fill="#000000" fill-opacity="1"><g transform="translate(216.281869, 232.499985)"><g><path d="M 3.066406 -7.53125 C 3.066406 -7.863281 3.050781 -8.242188 2.953125 -8.535156 C 2.855469 -8.816406 2.699219 -9.011719 2.464844 -9.011719 C 2.070312 -9 1.945312 -8.59375 1.945312 -7.992188 C 1.945312 -7.640625 2.097656 -7.277344 2.324219 -6.886719 C 2.546875 -6.492188 2.839844 -6.085938 3.136719 -5.652344 C 3.484375 -5.136719 3.835938 -4.605469 4.101562 -4.085938 C 4.367188 -3.570312 4.546875 -3.035156 4.546875 -2.476562 C 4.546875 -1.792969 4.4375 -1.148438 4.113281 -0.671875 C 3.792969 -0.195312 3.273438 0.113281 2.449219 0.113281 C 1.484375 0.113281 0.9375 -0.25 0.628906 -0.8125 C 0.320312 -1.371094 0.25 -2.113281 0.25 -2.882812 L 1.734375 -3.023438 C 1.734375 -2.589844 1.75 -2.15625 1.863281 -1.832031 C 1.960938 -1.496094 2.128906 -1.273438 2.449219 -1.273438 C 2.898438 -1.273438 3.066406 -1.75 3.066406 -2.40625 C 3.066406 -2.742188 2.898438 -3.136719 2.671875 -3.539062 C 2.546875 -3.738281 2.421875 -3.945312 2.28125 -4.15625 C 1.988281 -4.578125 1.664062 -5.050781 1.328125 -5.570312 C 0.992188 -6.085938 0.742188 -6.621094 0.585938 -7.164062 C 0.503906 -7.429688 0.460938 -7.710938 0.460938 -7.992188 C 0.460938 -8.550781 0.585938 -9.152344 0.910156 -9.613281 C 1.230469 -10.0625 1.722656 -10.382812 2.433594 -10.398438 C 3.34375 -10.414062 3.875 -10.035156 4.171875 -9.488281 C 4.464844 -8.929688 4.546875 -8.242188 4.546875 -7.667969 Z M 3.066406 -7.53125 "/></g></g></g><g fill="#000000" fill-opacity="1"><g transform="translate(229.481118, 232.499985)"><g><path d="M 3.246094 -4.476562 L 2.070312 -4.476562 L 2.070312 0 L 0.558594 0 L 0.558594 -10.285156 L 2.070312 -10.285156 L 2.070312 -6.03125 L 3.246094 -6.03125 L 3.246094 -10.285156 L 4.757812 -10.285156 L 4.757812 0 L 3.246094 0 Z M 3.246094 -4.476562 "/></g></g></g><g fill="#000000" fill-opacity="1"><g transform="translate(243.198074, 232.499985)"><g><path d="M 2.15625 -5.359375 L 2.027344 -5.835938 L 1.945312 -5.835938 L 1.945312 0 L 0.558594 0 L 0.558594 -10.285156 L 1.902344 -10.285156 L 3.371094 -4.925781 L 3.5 -4.449219 L 3.582031 -4.449219 L 3.582031 -10.285156 L 4.96875 -10.285156 L 4.96875 0 L 3.625 0 Z M 2.15625 -5.359375 "/></g></g></g><g fill="#000000" fill-opacity="1"><g transform="translate(257.124915, 232.499985)"><g><path d="M 0.140625 0 L 1.695312 -10.285156 L 3.539062 -10.285156 L 5.09375 0 L 3.625 0 L 3.34375 -2.097656 L 1.890625 -2.097656 L 1.609375 0 Z M 2.699219 -6.941406 L 2.660156 -7.207031 L 2.574219 -7.207031 L 2.53125 -6.941406 L 2.097656 -3.695312 L 3.136719 -3.695312 Z M 2.699219 -6.941406 "/></g></g></g><g fill="#000000" fill-opacity="1"><g transform="translate(172.058605, 248.999984)"><g><path d="M 3.066406 0 L 2.097656 -6.464844 L 2.042969 -6.898438 L 1.960938 -6.898438 L 1.960938 0 L 0.558594 0 L 0.558594 -10.285156 L 2.40625 -10.285156 L 3.304688 -5.585938 L 3.371094 -5.039062 L 3.402344 -5.039062 L 3.472656 -5.585938 L 4.367188 -10.285156 L 6.214844 -10.285156 L 6.214844 0 L 4.8125 0 L 4.8125 -6.898438 L 4.730469 -6.898438 L 4.675781 -6.464844 L 3.707031 0 Z M 3.066406 0 "/></g></g></g><g fill="#000000" fill-opacity="1"><g transform="translate(187.230753, 248.999984)"><g><path d="M 0.363281 -1.554688 L 1.832031 -1.554688 L 1.832031 0 L 0.363281 0 Z M 0.363281 -1.554688 "/></g></g></g><g fill="#000000" fill-opacity="1"><g transform="translate(197.827451, 248.999984)"><g><path d="M 4.578125 -10.285156 L 4.578125 -2.113281 C 4.5625 -1.695312 4.476562 -1.316406 4.324219 -0.992188 C 4.199219 -0.714844 4.003906 -0.449219 3.722656 -0.238281 C 3.441406 -0.015625 3.066406 0.113281 2.5625 0.113281 C 2.058594 0.113281 1.664062 -0.015625 1.386719 -0.238281 C 1.105469 -0.449219 0.921875 -0.714844 0.796875 -0.992188 C 0.644531 -1.316406 0.558594 -1.695312 0.546875 -2.113281 L 0.546875 -10.285156 L 2.058594 -10.285156 L 2.058594 -2.113281 C 2.058594 -1.820312 2.128906 -1.625 2.265625 -1.46875 C 2.335938 -1.398438 2.433594 -1.359375 2.5625 -1.359375 C 2.828125 -1.359375 2.953125 -1.527344 3.007812 -1.734375 C 3.050781 -1.832031 3.066406 -1.960938 3.066406 -2.113281 L 3.066406 -10.285156 Z M 4.578125 -10.285156 "/></g></g></g></svg>