<svg xmlns="http://www.w3.org/2000/svg" width="600" viewBox="0 0 600 450" height="450" version="1.0"><defs><clipPath id="a"><path d="M 93.433594 0 L 536.683594 0 L 536.683594 443.25 L 93.433594 443.25 Z M 93.433594 0"/></clipPath><clipPath id="b"><path d="M 107.921875 109.699219 L 314.921875 109.699219 L 314.921875 316.699219 L 107.921875 316.699219 Z M 107.921875 109.699219"/></clipPath><clipPath id="c"><path d="M 159 157 L 312 157 L 312 316.699219 L 159 316.699219 Z M 159 157"/></clipPath><clipPath id="d"><path d="M 315.089844 109.699219 L 526.589844 109.699219 L 526.589844 321.199219 L 315.089844 321.199219 Z M 315.089844 109.699219"/></clipPath><clipPath id="e"><path d="M 376 158 L 526.589844 158 L 526.589844 321.199219 L 376 321.199219 Z M 376 158"/></clipPath></defs><g clip-path="url(#a)"><path fill="#F8FFFB" d="M 536.683594 221.625 C 536.683594 225.253906 536.59375 228.875 536.414062 232.5 C 536.238281 236.121094 535.96875 239.738281 535.613281 243.347656 C 535.257812 246.957031 534.816406 250.554688 534.28125 254.144531 C 533.75 257.730469 533.132812 261.304688 532.421875 264.863281 C 531.714844 268.417969 530.921875 271.957031 530.039062 275.476562 C 529.160156 278.992188 528.191406 282.488281 527.140625 285.960938 C 526.085938 289.429688 524.949219 292.875 523.726562 296.289062 C 522.503906 299.703125 521.199219 303.085938 519.8125 306.4375 C 518.421875 309.789062 516.953125 313.101562 515.402344 316.382812 C 513.851562 319.660156 512.222656 322.898438 510.511719 326.097656 C 508.804688 329.296875 507.015625 332.453125 505.152344 335.5625 C 503.285156 338.675781 501.347656 341.738281 499.332031 344.753906 C 497.316406 347.769531 495.226562 350.734375 493.066406 353.648438 C 490.90625 356.558594 488.675781 359.417969 486.375 362.222656 C 484.074219 365.027344 481.707031 367.773438 479.269531 370.460938 C 476.835938 373.148438 474.335938 375.773438 471.769531 378.335938 C 469.203125 380.902344 466.578125 383.402344 463.890625 385.839844 C 461.203125 388.273438 458.457031 390.640625 455.652344 392.945312 C 452.851562 395.246094 449.992188 397.476562 447.078125 399.636719 C 444.164062 401.796875 441.199219 403.882812 438.183594 405.898438 C 435.167969 407.914062 432.105469 409.855469 428.996094 411.71875 C 425.882812 413.582031 422.730469 415.371094 419.53125 417.082031 C 416.332031 418.789062 413.09375 420.421875 409.8125 421.972656 C 406.535156 423.523438 403.21875 424.992188 399.867188 426.378906 C 396.519531 427.769531 393.136719 429.074219 389.71875 430.292969 C 386.304688 431.515625 382.863281 432.652344 379.390625 433.707031 C 375.921875 434.757812 372.425781 435.726562 368.90625 436.609375 C 365.390625 437.488281 361.851562 438.285156 358.292969 438.992188 C 354.738281 439.699219 351.164062 440.320312 347.574219 440.851562 C 343.988281 441.382812 340.390625 441.828125 336.78125 442.183594 C 333.171875 442.539062 329.554688 442.804688 325.929688 442.984375 C 322.308594 443.160156 318.683594 443.25 315.058594 443.25 C 311.429688 443.25 307.804688 443.160156 304.183594 442.984375 C 300.558594 442.804688 296.945312 442.539062 293.332031 442.183594 C 289.722656 441.828125 286.125 441.382812 282.539062 440.851562 C 278.949219 440.320312 275.378906 439.699219 271.820312 438.992188 C 268.261719 438.285156 264.726562 437.488281 261.207031 436.609375 C 257.6875 435.726562 254.195312 434.757812 250.722656 433.707031 C 247.25 432.652344 243.808594 431.515625 240.394531 430.292969 C 236.980469 429.074219 233.59375 427.769531 230.246094 426.378906 C 226.894531 424.992188 223.578125 423.523438 220.300781 421.972656 C 217.019531 420.421875 213.78125 418.789062 210.582031 417.082031 C 207.386719 415.371094 204.230469 413.582031 201.117188 411.71875 C 198.007812 409.855469 194.945312 407.914062 191.929688 405.898438 C 188.914062 403.882812 185.949219 401.796875 183.035156 399.636719 C 180.121094 397.476562 177.261719 395.246094 174.460938 392.945312 C 171.65625 390.640625 168.910156 388.273438 166.222656 385.839844 C 163.535156 383.402344 160.910156 380.902344 158.34375 378.335938 C 155.78125 375.773438 153.28125 373.148438 150.84375 370.460938 C 148.40625 367.773438 146.039062 365.027344 143.738281 362.222656 C 141.4375 359.417969 139.207031 356.558594 137.046875 353.648438 C 134.886719 350.734375 132.796875 347.769531 130.78125 344.753906 C 128.765625 341.738281 126.828125 338.675781 124.960938 335.5625 C 123.097656 332.453125 121.3125 329.296875 119.601562 326.097656 C 117.890625 322.898438 116.261719 319.660156 114.710938 316.382812 C 113.160156 313.101562 111.691406 309.789062 110.300781 306.4375 C 108.914062 303.085938 107.609375 299.703125 106.386719 296.289062 C 105.164062 292.875 104.027344 289.429688 102.976562 285.960938 C 101.921875 282.488281 100.953125 278.992188 100.074219 275.476562 C 99.191406 271.957031 98.398438 268.417969 97.691406 264.863281 C 96.984375 261.304688 96.363281 257.730469 95.832031 254.144531 C 95.296875 250.554688 94.855469 246.957031 94.5 243.347656 C 94.144531 239.738281 93.875 236.121094 93.699219 232.5 C 93.519531 228.875 93.433594 225.253906 93.433594 221.625 C 93.433594 217.996094 93.519531 214.375 93.699219 210.75 C 93.875 207.128906 94.144531 203.511719 94.5 199.902344 C 94.855469 196.292969 95.296875 192.695312 95.832031 189.105469 C 96.363281 185.519531 96.984375 181.945312 97.691406 178.386719 C 98.398438 174.832031 99.191406 171.292969 100.074219 167.773438 C 100.953125 164.257812 101.921875 160.761719 102.976562 157.289062 C 104.027344 153.820312 105.164062 150.375 106.386719 146.960938 C 107.609375 143.546875 108.914062 140.164062 110.300781 136.8125 C 111.691406 133.460938 113.160156 130.148438 114.710938 126.867188 C 116.261719 123.589844 117.890625 120.351562 119.601562 117.152344 C 121.3125 113.953125 123.097656 110.796875 124.960938 107.6875 C 126.828125 104.574219 128.765625 101.511719 130.78125 98.496094 C 132.796875 95.480469 134.886719 92.515625 137.046875 89.601562 C 139.207031 86.691406 141.4375 83.832031 143.738281 81.027344 C 146.039062 78.222656 148.40625 75.476562 150.84375 72.789062 C 153.28125 70.101562 155.78125 67.476562 158.34375 64.914062 C 160.910156 62.347656 163.535156 59.847656 166.222656 57.410156 C 168.910156 54.976562 171.65625 52.609375 174.460938 50.304688 C 177.261719 48.003906 180.121094 45.773438 183.035156 43.613281 C 185.949219 41.453125 188.914062 39.367188 191.929688 37.351562 C 194.945312 35.335938 198.007812 33.394531 201.117188 31.53125 C 204.230469 29.667969 207.386719 27.878906 210.582031 26.167969 C 213.78125 24.460938 217.019531 22.828125 220.300781 21.277344 C 223.578125 19.726562 226.894531 18.257812 230.246094 16.871094 C 233.59375 15.480469 236.980469 14.175781 240.394531 12.957031 C 243.808594 11.734375 247.25 10.597656 250.722656 9.542969 C 254.195312 8.488281 257.6875 7.523438 261.207031 6.640625 C 264.726562 5.761719 268.261719 4.964844 271.820312 4.257812 C 275.378906 3.550781 278.949219 2.929688 282.539062 2.398438 C 286.125 1.867188 289.722656 1.421875 293.332031 1.066406 C 296.945312 0.710938 300.558594 0.445312 304.183594 0.265625 C 307.804688 0.0898438 311.429688 0 315.058594 0 C 318.683594 0 322.308594 0.0898438 325.929688 0.265625 C 329.554688 0.445312 333.171875 0.710938 336.78125 1.066406 C 340.390625 1.421875 343.988281 1.867188 347.574219 2.398438 C 351.164062 2.929688 354.738281 3.550781 358.292969 4.257812 C 361.851562 4.964844 365.390625 5.761719 368.90625 6.640625 C 372.425781 7.523438 375.921875 8.488281 379.390625 9.542969 C 382.863281 10.597656 386.304688 11.734375 389.71875 12.957031 C 393.136719 14.175781 396.519531 15.480469 399.867188 16.871094 C 403.21875 18.257812 406.535156 19.726562 409.8125 21.277344 C 413.09375 22.828125 416.332031 24.460938 419.53125 26.167969 C 422.730469 27.878906 425.882812 29.667969 428.996094 31.53125 C 432.105469 33.394531 435.167969 35.335938 438.183594 37.351562 C 441.199219 39.367188 444.164062 41.453125 447.078125 43.613281 C 449.992188 45.773438 452.851562 48.003906 455.652344 50.304688 C 458.457031 52.609375 461.203125 54.976562 463.890625 57.410156 C 466.578125 59.847656 469.203125 62.347656 471.769531 64.914062 C 474.335938 67.476562 476.835938 70.101562 479.269531 72.789062 C 481.707031 75.476562 484.074219 78.222656 486.375 81.027344 C 488.675781 83.832031 490.90625 86.691406 493.066406 89.601562 C 495.226562 92.515625 497.316406 95.480469 499.332031 98.496094 C 501.347656 101.511719 503.285156 104.574219 505.152344 107.6875 C 507.015625 110.796875 508.804688 113.953125 510.511719 117.152344 C 512.222656 120.351562 513.851562 123.589844 515.402344 126.867188 C 516.953125 130.148438 518.421875 133.460938 519.8125 136.8125 C 521.199219 140.164062 522.503906 143.546875 523.726562 146.960938 C 524.949219 150.375 526.085938 153.820312 527.140625 157.289062 C 528.191406 160.761719 529.160156 164.257812 530.039062 167.773438 C 530.921875 171.292969 531.714844 174.832031 532.421875 178.386719 C 533.132812 181.945312 533.75 185.519531 534.28125 189.105469 C 534.816406 192.695312 535.257812 196.292969 535.613281 199.902344 C 535.96875 203.511719 536.238281 207.128906 536.414062 210.75 C 536.59375 214.375 536.683594 217.996094 536.683594 221.625 Z M 536.683594 221.625"/></g><path fill="#F8FFFB" d="M 315.058594 422.113281 C 204.410156 422.113281 114.570312 332.273438 114.570312 221.625 C 114.570312 110.976562 204.410156 21.136719 315.058594 21.136719 C 425.703125 21.136719 515.542969 110.976562 515.542969 221.625 C 515.542969 332.273438 425.703125 422.113281 315.058594 422.113281 Z M 315.058594 26.09375 C 207.050781 26.09375 119.523438 113.621094 119.523438 221.625 C 119.523438 329.628906 207.382812 417.15625 315.058594 417.15625 C 423.0625 417.15625 510.589844 329.300781 510.589844 221.625 C 510.589844 113.621094 423.0625 26.09375 315.058594 26.09375 Z M 315.058594 26.09375"/><g clip-path="url(#b)"><path fill="#FF6529" d="M 314.921875 213.199219 C 314.921875 270.359375 268.585938 316.699219 211.421875 316.699219 C 154.261719 316.699219 107.921875 270.359375 107.921875 213.199219 C 107.921875 156.039062 154.261719 109.699219 211.421875 109.699219 C 268.585938 109.699219 314.921875 156.039062 314.921875 213.199219 Z M 314.921875 213.199219"/></g><g clip-path="url(#c)"><path fill="#E53B07" d="M 311.160156 240.9375 L 228.152344 157.933594 L 159.769531 268.464844 L 207.9375 316.632812 C 209.097656 316.675781 210.257812 316.699219 211.421875 316.699219 C 258.976562 316.699219 299.035156 284.628906 311.160156 240.9375 Z M 311.160156 240.9375"/></g><path fill="#F8FFFB" d="M 228.152344 157.933594 L 194.695312 157.933594 L 159.769531 268.464844 L 184.363281 268.464844 L 192.652344 242.230469 L 230.195312 242.230469 L 238.484375 268.464844 L 263.078125 268.464844 Z M 200.058594 218.78125 L 211.421875 182.8125 L 222.789062 218.78125 Z M 200.058594 218.78125"/><path fill="#D8D8D8" d="M 228.152344 157.933594 L 211.421875 157.933594 L 211.421875 182.8125 L 222.789062 218.78125 L 211.421875 218.78125 L 211.421875 242.230469 L 230.195312 242.230469 L 238.484375 268.464844 L 263.078125 268.464844 Z M 228.152344 157.933594"/><g clip-path="url(#d)"><path fill="#FF6529" d="M 526.589844 215.449219 C 526.589844 273.855469 479.246094 321.199219 420.839844 321.199219 C 362.4375 321.199219 315.089844 273.855469 315.089844 215.449219 C 315.089844 157.046875 362.4375 109.699219 420.839844 109.699219 C 479.246094 109.699219 526.589844 157.046875 526.589844 215.449219 Z M 526.589844 215.449219"/></g><g clip-path="url(#e)"><path fill="#E53B07" d="M 526.589844 215.449219 C 526.589844 214.390625 526.570312 213.335938 526.539062 212.285156 L 473.238281 158.980469 L 441.886719 164.453125 L 425.835938 183.449219 L 400.082031 158.980469 L 381.175781 166.546875 L 376.121094 271.917969 L 425.304688 321.097656 C 481.636719 318.757812 526.589844 272.359375 526.589844 215.449219 Z M 526.589844 215.449219"/></g><path fill="#F8FFFB" d="M 431.953125 200.972656 L 472.347656 271.917969 L 444.777344 271.917969 L 414.488281 218.726562 L 400.082031 233.390625 L 400.082031 271.917969 L 376.121094 271.917969 L 376.121094 158.980469 L 400.082031 158.980469 L 400.082031 199.214844 L 439.640625 158.980469 L 473.238281 158.980469 Z M 431.953125 200.972656"/><path fill="#D8D8D8" d="M 431.953125 200.972656 L 472.347656 271.917969 L 444.777344 271.917969 L 414.492188 218.726562 L 414.492188 184.558594 L 439.640625 158.980469 L 473.238281 158.980469 Z M 431.953125 200.972656"/></svg>